<svg width="26" height="27" viewBox="0 0 26 27" fill="none" xmlns="http://www.w3.org/2000/svg">
<path d="M12.9167 22.8C9.6875 22.8 6.83292 21.1467 5.16667 18.6667C5.20542 16.0833 10.3333 14.6625 12.9167 14.6625C15.5 14.6625 20.6279 16.0833 20.6667 18.6667C19.8127 19.9382 18.6592 20.9803 17.3078 21.701C15.9563 22.4218 14.4483 22.7992 12.9167 22.8ZM12.9167 4.45834C13.9444 4.45834 14.93 4.8666 15.6567 5.59331C16.3834 6.32001 16.7917 7.30563 16.7917 8.33334C16.7917 9.36106 16.3834 10.3467 15.6567 11.0734C14.93 11.8001 13.9444 12.2083 12.9167 12.2083C11.889 12.2083 10.9033 11.8001 10.1766 11.0734C9.44992 10.3467 9.04167 9.36106 9.04167 8.33334C9.04167 7.30563 9.44992 6.32001 10.1766 5.59331C10.9033 4.8666 11.889 4.45834 12.9167 4.45834ZM12.9167 0.583344C11.2204 0.583344 9.54079 0.917443 7.97367 1.56657C6.40655 2.21569 4.98263 3.16712 3.7832 4.36655C1.36086 6.78889 0 10.0743 0 13.5C0 16.9257 1.36086 20.2111 3.7832 22.6335C4.98263 23.8329 6.40655 24.7843 7.97367 25.4335C9.54079 26.0826 11.2204 26.4167 12.9167 26.4167C16.3424 26.4167 19.6278 25.0558 22.0501 22.6335C24.4725 20.2111 25.8333 16.9257 25.8333 13.5C25.8333 6.35709 20.0208 0.583344 12.9167 0.583344Z" fill="#1D386D"/>
</svg>
