<svg width="33" height="43" viewBox="0 0 33 43" fill="none" xmlns="http://www.w3.org/2000/svg">
<path d="M12.3938 32.9976L12.9442 33.7022C13.737 34.7173 14.8976 35.7728 16.2288 35.7728C17.5586 35.7728 18.7064 34.7193 19.5007 33.7025L12.3938 32.9976ZM12.3938 32.9976L12.3578 33.0942M12.3938 32.9976L12.3578 33.0942M12.3578 33.0942C12.0687 32.8355 11.7514 32.6122 11.4115 32.4297C10.8264 32.1156 10.187 31.9294 9.53115 31.8833C8.87522 31.8373 8.21792 31.9326 7.59829 32.1628C7.47032 32.2103 7.34454 32.2634 7.22125 32.3218M12.3578 33.0942L7.22125 32.3218M7.22125 32.3218L10.7985 21.626L10.7986 21.6258C11.7436 18.7952 13.6548 16.4689 16.1314 15.1125C16.1318 15.1123 16.1321 15.112 16.1325 15.1118L18.4686 13.8501L18.4686 13.8501L18.4727 13.8478C20.3398 12.8166 21.8052 11.131 22.6362 9.08933L28.452 11.3227C27.8561 13.4788 27.9873 15.7973 28.8323 17.8679C28.8324 17.8683 28.8326 17.8687 28.8328 17.8691L29.8659 20.4407L29.8664 20.4421C30.9818 23.1955 31.0743 26.3055 30.1243 29.1308L30.1241 29.1314L28.1784 34.9426C27.7308 34.5897 27.3256 34.1753 26.9733 33.7087L26.9733 33.7087L26.9685 33.7025C26.5154 33.1213 25.9469 32.6511 25.3015 32.3274C24.6559 32.0037 23.9503 31.835 23.2346 31.835C22.5189 31.835 21.8132 32.0037 21.1677 32.3274C20.5224 32.6511 19.954 33.1212 19.5009 33.7022L7.22125 32.3218ZM12.7768 24.3269L12.7776 24.3244L13.3407 22.6513C13.3408 22.6511 13.3409 22.6508 13.341 22.6506C14.0409 20.5505 15.4652 18.8073 17.3329 17.7873C17.7878 17.5382 18.3205 17.4922 18.8099 17.6628C19.298 17.833 19.692 18.2003 19.9155 18.6711C20.1386 19.1411 20.1779 19.6837 20.0272 20.1827C19.8764 20.6821 19.5437 21.1076 19.0903 21.3561L19.0895 21.3566C18.0913 21.901 17.3146 22.8398 16.9285 23.9904C16.9284 23.9907 16.9284 23.9909 16.9283 23.9911L16.367 25.6776L12.7768 24.3269ZM12.7768 24.3269C12.6128 24.8228 12.6377 25.3675 12.8477 25.8451C13.0579 26.3235 13.441 26.7041 13.9239 26.8917L13.9239 26.8918M12.7768 24.3269L13.9239 26.8918M13.9239 26.8918L13.9356 26.8961M13.9239 26.8918L13.9356 26.8961M13.9356 26.8961C14.1411 26.9701 14.3572 27.0081 14.5754 27.0083M13.9356 26.8961L16.3668 25.678C16.2395 26.0613 16.0023 26.3988 15.682 26.6395C15.3616 26.8803 14.9748 27.0111 14.5754 27.0083M14.5754 27.0083C14.5761 27.0083 14.5768 27.0083 14.5775 27.0083L14.5773 26.5083L14.5732 27.0083C14.5739 27.0083 14.5746 27.0083 14.5754 27.0083Z" fill="#1D386D" stroke="#1D386D"/>
<path d="M31.0741 2.09041L26.0893 0.167887C25.4215 -0.0882703 24.6865 -0.0500843 24.0449 0.27411C23.4032 0.598305 22.907 1.18216 22.6647 1.89815L22.0599 3.7034C21.9495 4.03536 21.966 4.40083 22.1058 4.71974C22.2457 5.03865 22.4975 5.285 22.806 5.40483L30.4998 8.37704C30.8082 8.49627 31.1481 8.479 31.4447 8.32902C31.7413 8.17905 31.9704 7.90865 32.0815 7.57728L32.6862 5.77011C32.9246 5.05234 32.8888 4.2624 32.5867 3.57291C32.2846 2.88341 31.7408 2.35042 31.0741 2.09041Z" fill="#1D386D"/>
<path d="M30.2458 39.2873C27.5888 39.2873 25.6116 37.4686 24.42 35.944C24.2747 35.7581 24.0933 35.6086 23.8885 35.506C23.6838 35.4034 23.4606 35.3503 23.2346 35.3503C23.0087 35.3503 22.7855 35.4034 22.5807 35.506C22.3759 35.6086 22.1945 35.7581 22.0493 35.944C20.8576 37.4686 18.8787 39.2873 16.2235 39.2873C13.5682 39.2873 11.5911 37.4686 10.3995 35.944C10.2497 35.7659 10.0668 35.6236 9.8626 35.5262C9.65842 35.4287 9.4375 35.3784 9.21409 35.3784C8.99069 35.3784 8.76976 35.4287 8.56558 35.5262C8.36141 35.6236 8.17852 35.7659 8.02872 35.944C6.83708 37.4686 4.86175 39.2873 2.20472 39.2873C-0.452315 39.2873 -0.300229 42.6132 2.20472 42.6132C4.70966 42.6132 7.14841 41.4943 9.21499 39.4276C11.2798 41.4943 13.7203 42.6132 16.2235 42.6132C18.7266 42.6132 21.1689 41.4943 23.2355 39.4276C25.3003 41.4943 27.7408 42.6132 30.2458 42.6132C32.7507 42.6132 32.901 39.2873 30.2458 39.2873Z" fill="#1D386D"/>
</svg>
