<svg width="30" height="32" viewBox="0 0 30 32" fill="none" xmlns="http://www.w3.org/2000/svg">
<path d="M21.0448 7.88072L12.3145 11.8842C11.8923 12.0778 11.5537 12.4176 11.3607 12.8412L7.37056 21.6007C6.91028 22.6111 7.94758 23.6525 8.95524 23.1907L17.6855 19.1872C18.1077 18.9936 18.4463 18.6538 18.6393 18.2302L22.6294 9.4707C23.0897 8.45966 22.0524 7.41889 21.0448 7.88072ZM16.3657 16.906C15.6115 17.6628 14.3885 17.6628 13.6343 16.906C12.88 16.1492 12.88 14.9222 13.6343 14.1654C14.3885 13.4086 15.6115 13.4086 16.3657 14.1654C17.12 14.9222 17.12 16.1492 16.3657 16.906ZM15 0.485474C6.71552 0.485474 0 7.22348 0 15.5357C0 23.8479 6.71552 30.5859 15 30.5859C23.2845 30.5859 30 23.8479 30 15.5357C30 7.22348 23.2845 0.485474 15 0.485474ZM15 27.673C8.32984 27.673 2.90323 22.2282 2.90323 15.5357C2.90323 8.8432 8.32984 3.39842 15 3.39842C21.6702 3.39842 27.0968 8.8432 27.0968 15.5357C27.0968 22.2282 21.6702 27.673 15 27.673Z" fill="#1D386D"/>
</svg>
