<svg width="16" height="9" viewBox="0 0 16 9" fill="none" xmlns="http://www.w3.org/2000/svg">
<path fill-rule="evenodd" clip-rule="evenodd" d="M1.12479 0C0.902315 4.75036e-05 0.684849 0.0660549 0.499883 0.189678C0.314917 0.313301 0.170756 0.48899 0.0856251 0.694533C0.000494026 0.900075 -0.0217852 1.12624 0.0216044 1.34445C0.0649941 1.56265 0.172105 1.76309 0.329395 1.92043L7.07957 8.67061C7.29055 8.88152 7.57665 9 7.87497 9C8.17329 9 8.45939 8.88152 8.67037 8.67061L15.4205 1.92043C15.5778 1.76309 15.6849 1.56265 15.7283 1.34445C15.7717 1.12624 15.7494 0.900075 15.6643 0.694533C15.5792 0.48899 15.435 0.313301 15.2501 0.189678C15.0651 0.0660549 14.8476 4.75036e-05 14.6252 0H1.12479Z" fill="#1D386D"/>
</svg>
