<svg width="15" height="15" viewBox="0 0 15 15" fill="none" xmlns="http://www.w3.org/2000/svg">
<path d="M10.965 0.472603C11.2677 0.169995 11.6781 0 12.1062 0C12.5342 0 12.9447 0.169995 13.2474 0.472603L14.5274 1.75263C14.83 2.05533 15 2.46582 15 2.89384C15 3.32185 14.83 3.73234 14.5274 4.03504L8.07078 10.4917C7.76813 10.7944 7.35763 10.9645 6.92957 10.9646H5.64954C5.22144 10.9646 4.81088 10.7945 4.50816 10.4918C4.20545 10.1891 4.03539 9.77856 4.03539 9.35046V8.07043C4.03548 7.64237 4.2056 7.23187 4.50834 6.92922L10.965 0.472603ZM10.8261 2.89384L12.1062 4.17386L13.3862 2.89384L13.9568 3.46444L12.1062 1.61381L10.8261 2.89384ZM10.965 5.31507L9.68493 4.03504L5.64954 8.07043V9.35046H6.92957L10.965 5.31507ZM0 3.70091C0 3.05876 0.255094 2.44291 0.709163 1.98884C1.16323 1.53477 1.77908 1.27968 2.42123 1.27968H4.84247C5.05652 1.27968 5.2618 1.36471 5.41316 1.51607C5.56451 1.66742 5.64954 1.87271 5.64954 2.08676C5.64954 2.30081 5.56451 2.50609 5.41316 2.65745C5.2618 2.8088 5.05652 2.89384 4.84247 2.89384H2.42123C2.20718 2.89384 2.0019 2.97887 1.85054 3.13022C1.69919 3.28158 1.61416 3.48686 1.61416 3.70091V12.5788C1.61416 12.7928 1.69919 12.9981 1.85054 13.1495C2.0019 13.3008 2.20718 13.3858 2.42123 13.3858H11.2991C11.5131 13.3858 11.7184 13.3008 11.8698 13.1495C12.0211 12.9981 12.1062 12.7928 12.1062 12.5788V10.1575C12.1062 9.94348 12.1912 9.7382 12.3426 9.58684C12.4939 9.43549 12.6992 9.35046 12.9132 9.35046C13.1273 9.35046 13.3326 9.43549 13.4839 9.58684C13.6353 9.7382 13.7203 9.94348 13.7203 10.1575V12.5788C13.7203 13.2209 13.4652 13.8368 13.0112 14.2908C12.5571 14.7449 11.9412 15 11.2991 15H2.42123C1.77908 15 1.16323 14.7449 0.709163 14.2908C0.255094 13.8368 0 13.2209 0 12.5788V3.70091Z" fill="white"/>
</svg>
