<svg width="28" height="25" viewBox="0 0 28 25" fill="none" xmlns="http://www.w3.org/2000/svg">
<path d="M20.0469 2.625C20.7295 2.62443 21.4053 2.76012 22.0347 3.02414C22.6642 3.28815 23.2346 3.67517 23.7125 4.1625C24.6973 5.16223 25.2493 6.50921 25.2493 7.9125C25.2493 9.31579 24.6973 10.6628 23.7125 11.6625L14 21.4969L4.2875 11.6625C3.30274 10.6628 2.75074 9.31579 2.75074 7.9125C2.75074 6.50921 3.30274 5.16223 4.2875 4.1625C4.76571 3.67552 5.33617 3.2887 5.96554 3.02465C6.59492 2.7606 7.2706 2.6246 7.95313 2.6246C8.63565 2.6246 9.31133 2.7606 9.94071 3.02465C10.5701 3.2887 11.1405 3.67552 11.6188 4.1625L14 6.6L16.3719 4.18125C16.8484 3.68811 17.4194 3.29612 18.0508 3.02873C18.6823 2.76133 19.3612 2.62402 20.0469 2.625ZM20.0469 0.750003C19.1146 0.749212 18.1916 0.934554 17.332 1.29516C16.4723 1.65577 15.6933 2.18438 15.0406 2.85L14 3.9L12.9594 2.85C12.3059 2.18558 11.5267 1.65789 10.6672 1.29768C9.80767 0.937476 8.88506 0.751966 7.95313 0.751966C7.02119 0.751966 6.09858 0.937476 5.23908 1.29768C4.37957 1.65789 3.60036 2.18558 2.94688 2.85C1.61739 4.2034 0.872467 6.02471 0.872467 7.92188C0.872467 9.81904 1.61739 11.6404 2.94688 12.9938L14 24.1875L25.0531 12.9938C26.3826 11.6404 27.1275 9.81904 27.1275 7.92188C27.1275 6.02471 26.3826 4.2034 25.0531 2.85C24.3998 2.18522 23.6207 1.65717 22.7612 1.29662C21.9016 0.936077 20.9789 0.750259 20.0469 0.750003Z" fill="#1D386D"/>
</svg>
