<svg width="26" height="26" viewBox="0 0 26 26" fill="none" xmlns="http://www.w3.org/2000/svg">
<path d="M12.915 2.583C10.1748 2.583 7.5468 3.67155 5.60917 5.60917C3.67155 7.5468 2.583 10.1748 2.583 12.915C2.583 15.6552 3.67155 18.2832 5.60917 20.2208C7.5468 22.1585 10.1748 23.247 12.915 23.247C15.6552 23.247 18.2832 22.1585 20.2208 20.2208C22.1585 18.2832 23.247 15.6552 23.247 12.915C23.247 10.1748 22.1585 7.5468 20.2208 5.60917C18.2832 3.67155 15.6552 2.583 12.915 2.583ZM0 12.915C0 5.78205 5.78205 0 12.915 0C20.048 0 25.83 5.78205 25.83 12.915C25.83 20.048 20.048 25.83 12.915 25.83C5.78205 25.83 0 20.048 0 12.915ZM12.915 19.3725C13.2575 19.3725 13.586 19.2364 13.8282 18.9942C14.0704 18.752 14.2065 18.4235 14.2065 18.081V12.915C14.2065 12.5725 14.0704 12.244 13.8282 12.0018C13.586 11.7596 13.2575 11.6235 12.915 11.6235C12.5725 11.6235 12.244 11.7596 12.0018 12.0018C11.7596 12.244 11.6235 12.5725 11.6235 12.915V18.081C11.6235 18.4235 11.7596 18.752 12.0018 18.9942C12.244 19.2364 12.5725 19.3725 12.915 19.3725ZM12.915 6.4575C12.5725 6.4575 12.244 6.59357 12.0018 6.83577C11.7596 7.07797 11.6235 7.40647 11.6235 7.749C11.6235 8.09153 11.7596 8.42002 12.0018 8.66223C12.244 8.90443 12.5725 9.0405 12.915 9.0405H12.9279C13.2704 9.0405 13.5989 8.90443 13.8411 8.66223C14.0833 8.42002 14.2194 8.09153 14.2194 7.749C14.2194 7.40647 14.0833 7.07797 13.8411 6.83577C13.5989 6.59357 13.2704 6.4575 12.9279 6.4575H12.915Z" fill="#1D386D"/>
</svg>
