<svg width="463" height="66" viewBox="0 0 463 66" fill="none" xmlns="http://www.w3.org/2000/svg">
<path d="M327.77 65.2765C322.794 65.3973 317.872 64.2186 313.49 61.8565C309.555 59.6845 306.33 56.4244 304.2 52.4665C302.008 48.309 300.901 43.6657 300.98 38.9665C300.834 33.8002 302.048 28.6862 304.5 24.1365C306.658 20.2228 309.833 16.9648 313.69 14.7065C317.325 12.5606 321.469 11.4279 325.69 11.4265C328.878 11.4214 332.03 12.1036 334.93 13.4265C337.827 14.7259 340.451 16.5653 342.66 18.8465C344.932 21.2037 346.755 23.9554 348.04 26.9665C349.379 30.1047 350.06 33.4845 350.04 36.8965C350.059 37.5673 349.923 38.2334 349.644 38.8436C349.365 39.4538 348.95 39.9919 348.43 40.4165C347.382 41.3173 346.042 41.8045 344.66 41.7865H306.94L304.3 32.7865H340.69L338.63 34.5465V31.9265C338.504 29.9199 337.752 28.0033 336.48 26.4465C335.187 24.8341 333.55 23.5317 331.688 22.6353C329.826 21.7389 327.787 21.2712 325.72 21.2665C323.832 21.258 321.954 21.5379 320.15 22.0965C318.412 22.6437 316.84 23.6205 315.58 24.9365C314.165 26.4223 313.087 28.196 312.42 30.1365C311.569 32.7564 311.173 35.5029 311.25 38.2565C311.153 41.4659 311.927 44.6417 313.49 47.4465C314.874 49.8785 316.883 51.8956 319.31 53.2884C321.737 54.6811 324.492 55.3987 327.29 55.3665C329.233 55.413 331.173 55.2011 333.06 54.7365C334.373 54.3928 335.625 53.8462 336.77 53.1165C337.77 52.4665 338.6 51.8865 339.32 51.3565C340.276 50.8133 341.351 50.5113 342.45 50.4765C343.652 50.4763 344.806 50.9475 345.664 51.7889C346.522 52.6304 347.016 53.7749 347.04 54.9765C347.01 55.8382 346.772 56.6799 346.348 57.4303C345.923 58.1806 345.323 58.8174 344.6 59.2865C342.474 61.1312 340.017 62.5563 337.36 63.4865C334.301 64.6675 331.05 65.2743 327.77 65.2765Z" fill="#C6C6C5"/>
<path d="M217.88 11.2766C222.335 11.3032 226.708 12.474 230.58 14.6766C234.52 16.9597 237.778 20.2531 240.02 24.2166C242.415 28.4882 243.63 33.3202 243.54 38.2166C243.645 43.1146 242.429 47.9505 240.02 52.2166C237.771 56.1615 234.513 59.4369 230.58 61.7066C226.718 63.9068 222.355 65.0775 217.91 65.1066C218.34 65.1066 218.5 65.0066 218.48 64.9666C218.293 65.0182 218.102 65.0582 217.91 65.0866H217.23H216.61C216.418 65.0562 216.228 65.0162 216.04 64.9666C214.89 64.6846 213.88 63.9992 213.193 63.0352C212.507 62.0711 212.189 60.8925 212.298 59.7138C212.407 58.5352 212.936 57.4349 213.787 56.6132C214.639 55.7914 215.758 55.3029 216.94 55.2366H217.58C220.26 55.2246 222.887 54.485 225.18 53.0966C227.549 51.6391 229.478 49.5653 230.76 47.0966C232.109 44.306 232.81 41.2463 232.81 38.1466C232.81 35.0469 232.109 31.9872 230.76 29.1966C229.477 26.7288 227.548 24.6552 225.18 23.1966C222.855 21.8236 220.2 21.1114 217.5 21.1366H217.19C216.001 21.0189 214.894 20.4795 214.068 19.616C213.243 18.7525 212.754 17.6219 212.69 16.429C212.626 15.2361 212.991 14.0597 213.719 13.1128C214.447 12.1658 215.491 11.5109 216.66 11.2666H217.24H217.88" fill="#95E8B7"/>
<path d="M216.7 11.2766C212.242 11.3015 207.865 12.4723 203.99 14.6766C200.061 16.9639 196.813 20.2569 194.58 24.2166C192.185 28.4882 190.97 33.3202 191.06 38.2166C190.955 43.1146 192.171 47.9505 194.58 52.2166C196.829 56.1615 200.087 59.4369 204.02 61.7066C207.882 63.9068 212.245 65.0775 216.69 65.1066C216.26 65.1066 216.1 65.0066 216.11 64.9666C216.301 65.0172 216.495 65.0572 216.69 65.0866H217.37H217.98C218.175 65.0572 218.369 65.0172 218.56 64.9666C219.697 64.6719 220.693 63.9822 221.369 63.0208C222.044 62.0593 222.356 60.8889 222.247 59.7189C222.139 58.5488 221.618 57.4555 220.778 56.6343C219.937 55.8131 218.832 55.3177 217.66 55.2366H217.04C214.363 55.2243 211.739 54.4846 209.45 53.0966C207.081 51.6391 205.152 49.5653 203.87 47.0966C202.521 44.306 201.82 41.2463 201.82 38.1466C201.82 35.0469 202.521 31.9872 203.87 29.1966C205.153 26.7288 207.082 24.6552 209.45 23.1966C211.76 21.831 214.397 21.119 217.08 21.1366H217.39C218.578 21.0173 219.685 20.4766 220.509 19.6124C221.333 18.7481 221.821 17.6173 221.884 16.4247C221.947 15.232 221.58 14.0563 220.851 13.1101C220.123 12.164 219.079 11.5101 217.91 11.2666H217.34H216.7" fill="white"/>
<path d="M102.08 11.2766C106.538 11.3015 110.915 12.4723 114.79 14.6766C118.73 16.9597 121.989 20.2531 124.23 24.2166C126.625 28.4882 127.84 33.3202 127.75 38.2166C127.855 43.1146 126.639 47.9505 124.23 52.2166C121.981 56.1615 118.723 59.4369 114.79 61.7066C110.928 63.9068 106.565 65.0775 102.12 65.1066C102.55 65.1066 102.71 65.0066 102.69 64.9666C102.502 65.0172 102.312 65.0572 102.12 65.0866H101.44H100.82C100.628 65.0562 100.438 65.0162 100.25 64.9666C99.1003 64.6846 98.0903 63.9992 97.4035 63.0352C96.7166 62.0711 96.3988 60.8925 96.5078 59.7138C96.6168 58.5352 97.1455 57.4349 97.9974 56.6132C98.8494 55.7914 99.9682 55.3029 101.15 55.2366H101.76C104.44 55.2246 107.067 54.485 109.36 53.0966C111.729 51.6391 113.658 49.5653 114.94 47.0966C116.289 44.306 116.99 41.2463 116.99 38.1466C116.99 35.0469 116.289 31.9872 114.94 29.1966C113.657 26.7288 111.728 24.6552 109.36 23.1966C107.041 21.8272 104.393 21.115 101.7 21.1366H101.39C100.201 21.0189 99.0938 20.4795 98.2683 19.616C97.4428 18.7525 96.9538 17.6219 96.8897 16.429C96.8257 15.2361 97.1908 14.0597 97.9191 13.1128C98.6473 12.1658 99.6906 11.5109 100.86 11.2666H101.44H102.08" fill="#FFC91D"/>
<path d="M100.9 11.2766C96.4419 11.3015 92.065 12.4723 88.1899 14.6766C84.2503 16.9597 80.9914 20.2531 78.7499 24.2166C76.3549 28.4882 75.14 33.3202 75.23 38.2166C75.1254 43.1146 76.3412 47.9505 78.7499 52.2166C80.9989 56.1615 84.257 59.4369 88.1899 61.7066C92.0522 63.9068 96.4151 65.0775 100.86 65.1066C100.43 65.1066 100.27 65.0066 100.28 64.9666C100.471 65.0172 100.665 65.0572 100.86 65.0866H101.54H102.15C102.345 65.0572 102.539 65.0172 102.73 64.9666C103.867 64.6719 104.863 63.9822 105.539 63.0208C106.214 62.0593 106.526 60.8889 106.417 59.7189C106.309 58.5488 105.788 57.4555 104.948 56.6343C104.107 55.8131 103.002 55.3177 101.83 55.2366H101.21C98.5234 55.2407 95.8861 54.5148 93.58 53.1366C91.2159 51.6758 89.2913 49.6025 88.0099 47.1366C86.6606 44.346 85.9597 41.2864 85.9597 38.1866C85.9597 35.0869 86.6606 32.0272 88.0099 29.2366C89.2925 26.7715 91.2169 24.6986 93.58 23.2366C95.9071 21.8475 98.5698 21.1213 101.28 21.1366H101.58C102.768 21.0173 103.875 20.4766 104.699 19.6124C105.523 18.7481 106.011 17.6173 106.074 16.4247C106.137 15.232 105.77 14.0563 105.042 13.1101C104.313 12.164 103.269 11.5101 102.1 11.2666H101.58H100.94" fill="white"/>
<path d="M180.58 22.7866C180.595 23.0331 180.595 23.2802 180.58 23.5266C180.585 24.7955 180.17 26.0302 179.399 27.0379C178.628 28.0456 177.544 28.7695 176.318 29.0963C175.092 29.423 173.793 29.3344 172.622 28.8441C171.452 28.3539 170.477 27.4897 169.85 26.3866C169.94 26.6066 170.03 26.8266 170.11 27.0566C170.752 28.9909 171.066 31.0188 171.04 33.0566V58.6866C171.018 59.4062 171.14 60.1229 171.399 60.7944C171.659 61.466 172.05 62.0787 172.55 62.5966C173.588 63.5969 174.973 64.1558 176.415 64.1558C177.857 64.1558 179.242 63.5969 180.28 62.5966C180.781 62.0792 181.174 61.4668 181.435 60.7953C181.696 60.1238 181.82 59.4068 181.8 58.6866V33.0666C181.849 29.6011 181.438 26.1444 180.58 22.7866Z" fill="#FFC91D"/>
<path d="M180.58 22.7766C180.52 22.5366 180.46 22.2866 180.39 22.0566C180.27 21.6466 180.14 21.2566 179.99 20.8766C179.037 18.2474 177.367 15.9372 175.17 14.2066C172.65 12.26 169.013 11.2833 164.26 11.2766C162.11 11.265 159.974 11.6305 157.95 12.3566C156.031 13.009 154.221 13.9462 152.58 15.1366C151.097 16.2436 149.754 17.5263 148.58 18.9566C148.26 19.3466 147.97 19.7366 147.7 20.1266V17.7166C147.713 17.0033 147.586 16.2944 147.325 15.6304C147.064 14.9664 146.675 14.3602 146.18 13.8466C145.68 13.3366 145.083 12.9313 144.425 12.6547C143.766 12.3781 143.059 12.2356 142.345 12.2356C141.631 12.2356 140.924 12.3781 140.265 12.6547C139.607 12.9313 139.01 13.3366 138.51 13.8466C138.002 14.3535 137.602 14.9573 137.332 15.6221C137.062 16.287 136.929 16.9993 136.94 17.7166V58.7166C136.92 59.4368 137.044 60.1538 137.305 60.8253C137.566 61.4968 137.959 62.1093 138.46 62.6266C139.496 63.6263 140.88 64.1849 142.32 64.1849C143.76 64.1849 145.144 63.6263 146.18 62.6266C146.683 62.1106 147.077 61.4983 147.338 60.8265C147.6 60.1547 147.723 59.4371 147.7 58.7166V33.0666C147.677 30.9569 148.234 28.8813 149.31 27.0666C150.391 25.2652 151.925 23.7791 153.76 22.7566C155.855 21.6361 158.205 21.0779 160.58 21.1366C162.815 21.0028 165.037 21.5653 166.94 22.7466C168.035 23.5019 168.939 24.5016 169.58 25.6666C169.38 25.1666 169.38 25.1566 169.58 25.6666C169.7 25.8966 169.82 26.1366 169.93 26.3866C170.574 27.4516 171.548 28.2782 172.703 28.7419C173.858 29.2056 175.133 29.2812 176.334 28.9573C177.536 28.6334 178.6 27.9276 179.366 26.9462C180.132 25.9649 180.558 24.7612 180.58 23.5166C180.6 23.2704 180.6 23.0229 180.58 22.7766Z" fill="white"/>
<path d="M461.17 22.7866C461.202 23.032 461.219 23.2792 461.22 23.5266C461.225 24.7955 460.81 26.0302 460.039 27.0379C459.268 28.0456 458.184 28.7695 456.958 29.0963C455.732 29.423 454.433 29.3344 453.262 28.8441C452.092 28.3539 451.117 27.4897 450.49 26.3866C450.59 26.6066 450.67 26.8266 450.75 27.0566C451.392 28.9909 451.706 31.0188 451.68 33.0566V58.6866C451.658 59.4062 451.78 60.1229 452.039 60.7944C452.299 61.466 452.69 62.0787 453.19 62.5966C454.228 63.5969 455.613 64.1558 457.055 64.1558C458.496 64.1558 459.882 63.5969 460.92 62.5966C461.421 62.0792 461.814 61.4668 462.075 60.7953C462.336 60.1238 462.46 59.4068 462.44 58.6866V33.0666C462.472 29.5989 462.045 26.1422 461.17 22.7866Z" fill="#95E8B7"/>
<path d="M461.17 22.7766C461.1 22.5366 461.04 22.2866 460.97 22.0566C460.85 21.6466 460.72 21.2566 460.58 20.8766C459.624 18.2462 457.951 15.9358 455.75 14.2066C453.237 12.26 449.6 11.2833 444.84 11.2766C442.69 11.265 440.554 11.6305 438.53 12.3566C436.622 13.0282 434.825 13.9821 433.2 15.1866C431.717 16.2936 430.374 17.5763 429.2 19.0066C428.88 19.3966 428.59 19.7866 428.32 20.1766V17.7166C428.345 16.2783 427.803 14.8879 426.81 13.8466C426.309 13.3363 425.712 12.9308 425.052 12.6541C424.393 12.3773 423.685 12.2348 422.97 12.2348C422.255 12.2348 421.547 12.3773 420.888 12.6541C420.228 12.9308 419.631 13.3363 419.13 13.8466C418.624 14.3548 418.225 14.9589 417.955 15.6234C417.685 16.2879 417.551 16.9996 417.56 17.7166V58.7166C417.54 59.4368 417.664 60.1538 417.925 60.8253C418.186 61.4968 418.579 62.1093 419.08 62.6266C420.118 63.6269 421.503 64.1858 422.945 64.1858C424.387 64.1858 425.772 63.6269 426.81 62.6266C427.31 62.1088 427.701 61.496 427.961 60.8244C428.22 60.1529 428.342 59.4362 428.32 58.7166V33.0666C428.295 30.9553 428.856 28.8784 429.94 27.0666C431.016 25.262 432.552 23.7748 434.39 22.7566C436.491 21.6336 438.849 21.0786 441.23 21.1466C443.466 21.0128 445.687 21.5753 447.59 22.7566C448.659 23.5201 449.538 24.5192 450.16 25.6766C449.96 25.1766 449.96 25.1666 450.16 25.6766C450.28 25.9066 450.4 26.1466 450.51 26.3966C451.137 27.4997 452.112 28.3639 453.282 28.8542C454.453 29.3444 455.752 29.4331 456.978 29.1063C458.204 28.7795 459.288 28.0557 460.059 27.048C460.83 26.0403 461.245 24.8055 461.24 23.5366C461.233 23.2821 461.209 23.0282 461.17 22.7766Z" fill="white"/>
<path d="M275.34 11.2566C278.569 11.207 281.791 11.587 284.92 12.3866C287.271 12.9384 289.464 14.023 291.33 15.5566C292.042 16.1389 292.617 16.8709 293.015 17.7004C293.412 18.5299 293.622 19.4367 293.63 20.3566C293.644 21.5779 293.277 22.7733 292.58 23.7766C292.236 24.2832 291.767 24.6929 291.219 24.9661C290.671 25.2393 290.062 25.3669 289.45 25.3366C288.582 25.3716 287.716 25.2216 286.91 24.8966C286.27 24.6204 285.689 24.2231 285.2 23.7266C284.638 23.1873 283.993 22.7417 283.29 22.4066C282.326 21.9175 281.283 21.6026 280.21 21.4766C279.094 21.276 277.964 21.1623 276.83 21.1366C273.775 21.0478 270.758 21.8281 268.13 23.3866C265.749 24.8556 263.818 26.9523 262.55 29.4466C261.189 32.1813 260.503 35.2023 260.55 38.2566C260.51 41.2749 261.196 44.2588 262.55 46.9566C263.808 49.4417 265.72 51.5368 268.08 53.0166C270.53 54.5362 273.367 55.3174 276.25 55.2666C277.757 55.2882 279.263 55.1745 280.75 54.9266C281.799 54.763 282.813 54.425 283.75 53.9266C284.647 53.4606 285.483 52.8863 286.24 52.2166C287.116 51.535 288.213 51.2035 289.32 51.2866C289.995 51.2452 290.67 51.3558 291.297 51.6102C291.924 51.8646 292.485 52.2564 292.94 52.7566C293.798 53.7638 294.251 55.0541 294.21 56.3766C294.21 57.9366 293.32 59.3766 291.52 60.6766C289.361 62.1554 286.962 63.2482 284.43 63.9066C281.313 64.7797 278.087 65.2073 274.85 65.1765C270.294 65.3331 265.791 64.1646 261.886 61.8127C257.981 59.4609 254.842 56.0267 252.85 51.9266C250.761 47.6869 249.705 43.0126 249.77 38.2866C249.664 33.4237 250.774 28.6115 253 24.2866C255.065 20.3394 258.18 17.0383 262 14.7466C266.039 12.373 270.656 11.1649 275.34 11.2566Z" fill="#95E8B7"/>
<path d="M291.33 15.5566C289.464 14.0231 287.271 12.9385 284.92 12.3866C281.791 11.5871 278.569 11.2071 275.34 11.2566C270.668 11.1645 266.062 12.3654 262.03 14.7266C258.21 17.0184 255.096 20.3194 253.03 24.2666C250.817 28.5745 249.707 33.3643 249.8 38.2066C249.8 38.3066 249.8 38.4066 249.8 38.5166C249.8 39.9435 250.367 41.3119 251.376 42.3209C252.385 43.3298 253.753 43.8966 255.18 43.8966C255.899 43.899 256.61 43.7526 257.27 43.4666C258.159 43.094 258.931 42.4887 259.504 41.7144C260.078 40.94 260.432 40.0254 260.53 39.0666C260.54 38.8834 260.54 38.6998 260.53 38.5166C260.535 38.4134 260.535 38.3099 260.53 38.2066C260.483 35.1683 261.169 32.1634 262.53 29.4466C263.798 26.9524 265.729 24.8557 268.11 23.3866C270.739 21.8282 273.755 21.0479 276.81 21.1366C277.944 21.1624 279.074 21.2761 280.19 21.4766C281.263 21.6027 282.306 21.9175 283.27 22.4066C283.973 22.7418 284.618 23.1874 285.18 23.7266C285.669 24.2232 286.25 24.6204 286.89 24.8966C287.696 25.2217 288.562 25.3717 289.43 25.3366C290.045 25.3704 290.658 25.2445 291.21 24.9712C291.762 24.6978 292.234 24.2863 292.58 23.7766C293.287 22.7769 293.665 21.5813 293.66 20.3566C293.649 19.4344 293.434 18.5261 293.031 17.6964C292.628 16.8667 292.048 16.1361 291.33 15.5566Z" fill="white"/>
<path d="M327.77 65.2765C322.794 65.3973 317.872 64.2186 313.49 61.8565C309.555 59.6845 306.33 56.4244 304.2 52.4665C302.008 48.309 300.901 43.6657 300.98 38.9665C300.834 33.8002 302.048 28.6862 304.5 24.1365C306.658 20.2228 309.833 16.9648 313.69 14.7065C317.325 12.5606 321.469 11.4279 325.69 11.4265C328.878 11.4214 332.03 12.1036 334.93 13.4265C337.827 14.7259 340.451 16.5653 342.66 18.8465C344.932 21.2037 346.755 23.9554 348.04 26.9665C349.379 30.1047 350.06 33.4845 350.04 36.8965C350.059 37.5673 349.923 38.2334 349.644 38.8436C349.365 39.4538 348.95 39.9919 348.43 40.4165C347.382 41.3173 346.042 41.8045 344.66 41.7865H306.94L304.3 32.7865H338.63V32.0065C338.504 29.9999 337.752 28.0833 336.48 26.5265C335.187 24.9141 333.55 23.6117 331.688 22.7153C329.826 21.8189 327.787 21.3512 325.72 21.3465C323.832 21.338 321.954 21.6179 320.15 22.1765C318.42 22.7008 316.849 23.6496 315.58 24.9365C314.165 26.4223 313.087 28.196 312.42 30.1365C311.569 32.7564 311.173 35.5029 311.25 38.2565C311.153 41.4659 311.927 44.6417 313.49 47.4465C314.874 49.8785 316.883 51.8956 319.31 53.2884C321.737 54.6811 324.492 55.3987 327.29 55.3665C329.233 55.413 331.173 55.2011 333.06 54.7365C334.373 54.3928 335.625 53.8462 336.77 53.1165C337.77 52.4665 338.6 51.8865 339.32 51.3565C340.276 50.8133 341.351 50.5113 342.45 50.4765C343.652 50.4763 344.806 50.9475 345.664 51.7889C346.522 52.6304 347.016 53.7749 347.04 54.9765C347.01 55.8382 346.772 56.6799 346.348 57.4303C345.923 58.1806 345.323 58.8174 344.6 59.2865C342.474 61.1312 340.017 62.5563 337.36 63.4865C334.301 64.6675 331.05 65.2743 327.77 65.2765Z" fill="#95E8B7"/>
<path d="M399.94 11.4567C400.652 11.4321 401.362 11.5533 402.026 11.813C402.69 12.0726 403.293 12.4652 403.8 12.9667C404.314 13.4933 404.715 14.1202 404.977 14.8084C405.238 15.4966 405.355 16.2313 405.32 16.9667V58.7367C405.34 59.4569 405.216 60.1738 404.955 60.8453C404.694 61.5168 404.301 62.1293 403.8 62.6467C402.764 63.6463 401.38 64.2049 399.94 64.2049C398.5 64.2049 397.116 63.6463 396.08 62.6467C395.577 62.1306 395.183 61.5184 394.922 60.8466C394.66 60.1747 394.537 59.4571 394.56 58.7367V52.8667L396.56 53.4567C396.455 54.7229 395.978 55.9299 395.19 56.9267C394.144 58.4006 392.876 59.7028 391.43 60.7867C389.714 62.0908 387.822 63.1447 385.81 63.9167C383.577 64.777 381.203 65.2079 378.81 65.1867C374.502 65.2393 370.272 64.0333 366.64 61.7167C362.974 59.3548 360.016 56.0443 358.08 52.1367C355.92 47.7918 354.846 42.9878 354.95 38.1367C354.846 33.2856 355.92 28.4816 358.08 24.1367C360.018 20.2808 362.953 17.0143 366.58 14.6767C370.12 12.3993 374.251 11.2102 378.46 11.2567C381.107 11.2333 383.738 11.6628 386.24 12.5267C388.462 13.2916 390.543 14.4166 392.4 15.8567C393.976 17.0623 395.347 18.5143 396.46 20.1567C397.311 21.2942 397.821 22.6503 397.93 24.0667L394.6 24.9467V16.9467C394.577 16.2262 394.7 15.5086 394.962 14.8368C395.223 14.165 395.617 13.5527 396.12 13.0367C396.613 12.5232 397.207 12.1177 397.864 11.8457C398.522 11.5738 399.229 11.4413 399.94 11.4567ZM380.08 55.2667C382.858 55.3312 385.59 54.5462 387.91 53.0167C390.164 51.4792 391.969 49.3707 393.14 46.9067C394.399 44.1772 395.05 41.2073 395.05 38.2017C395.05 35.196 394.399 32.2262 393.14 29.4967C391.966 27.0345 390.162 24.9266 387.91 23.3867C385.587 21.9327 382.901 21.1617 380.16 21.1617C377.419 21.1617 374.734 21.9327 372.41 23.3867C370.132 24.8888 368.306 26.984 367.13 29.4467C365.87 32.1934 365.218 35.1798 365.218 38.2017C365.218 41.2236 365.87 44.2099 367.13 46.9567C368.31 49.43 370.134 51.5403 372.41 53.0667C374.687 54.5561 377.36 55.3229 380.08 55.2667Z" fill="#95E8B7"/>
<path d="M379.48 55.2565C376.959 55.1999 374.507 54.4264 372.41 53.0265C370.134 51.5001 368.31 49.3898 367.13 46.9165C365.87 44.1697 365.218 41.1834 365.218 38.1615C365.218 35.1396 365.87 32.1532 367.13 29.4065C368.306 26.9438 370.132 24.8485 372.41 23.3465C374.516 21.9684 376.964 21.2032 379.48 21.1365C380.147 21.1665 380.813 21.0611 381.438 20.8266C382.063 20.5922 382.633 20.2335 383.116 19.7723C383.598 19.3111 383.982 18.7569 384.245 18.1432C384.507 17.5294 384.642 16.8689 384.642 16.2015C384.642 15.534 384.507 14.8735 384.245 14.2598C383.982 13.6461 383.598 13.0919 383.116 12.6307C382.633 12.1695 382.063 11.8108 381.438 11.5763C380.813 11.3419 380.147 11.2365 379.48 11.2665H378.42C374.225 11.2249 370.11 12.4101 366.58 14.6765C362.953 17.0141 360.018 20.2806 358.08 24.1365C355.92 28.4813 354.846 33.2854 354.95 38.1365C354.846 42.9876 355.92 47.7916 358.08 52.1365C360.022 56.0294 362.98 59.3255 366.64 61.6765C370.272 63.9931 374.502 65.1991 378.81 65.1465H379.48C380.79 65.1465 382.047 64.626 382.973 63.6996C383.9 62.7732 384.42 61.5166 384.42 60.2065C384.42 58.8963 383.9 57.6398 382.973 56.7134C382.047 55.7869 380.79 55.2665 379.48 55.2665V55.2565Z" fill="white"/>
<path d="M325.91 55.3465C323.605 55.1769 321.367 54.4935 319.36 53.3465C316.918 51.9445 314.892 49.9187 313.49 47.4765C312.463 45.6976 311.784 43.7394 311.49 41.7065H325.89C327.01 41.6007 328.051 41.0809 328.808 40.2487C329.566 39.4165 329.985 38.3317 329.985 37.2065C329.985 36.0812 329.566 34.9964 328.808 34.1642C328.051 33.332 327.01 32.8122 325.89 32.7065C325.727 32.6962 325.563 32.6962 325.4 32.7065H311.73C311.894 31.8432 312.125 30.994 312.42 30.1665C313.083 28.2153 314.161 26.431 315.58 24.9365C316.849 23.6162 318.431 22.6391 320.18 22.0965C321.984 21.5378 323.862 21.2579 325.75 21.2665H325.94C327.25 21.2665 328.507 20.746 329.433 19.8196C330.36 18.8932 330.88 17.6366 330.88 16.3265C330.88 15.0163 330.36 13.7598 329.433 12.8334C328.507 11.9069 327.25 11.3865 325.94 11.3865H325.75C321.529 11.3879 317.385 12.5205 313.75 14.6665C309.866 16.9271 306.669 20.2003 304.5 24.1365C302.041 28.6979 300.827 33.8267 300.98 39.0065C300.901 43.7057 302.008 48.3489 304.2 52.5065C306.333 56.4623 309.557 59.7218 313.49 61.8965C317.104 63.8341 321.104 64.941 325.2 65.1365C325.435 65.1718 325.672 65.1918 325.91 65.1965C327.183 65.1392 328.385 64.5932 329.266 63.6721C330.146 62.751 330.638 61.5258 330.638 60.2515C330.638 58.9772 330.146 57.7519 329.266 56.8308C328.385 55.9097 327.183 55.3637 325.91 55.3065V55.3465Z" fill="white"/>
<path d="M5.20003 30.9967C5.20003 30.9967 0.0200369 31.1667 0.0200369 25.0667V59.7967C-0.0264218 61.2352 0.477865 62.6373 1.43001 63.7167C1.92072 64.2104 2.50427 64.6022 3.14699 64.8696C3.78971 65.137 4.47889 65.2746 5.175 65.2746C5.87112 65.2746 6.56037 65.137 7.20308 64.8696C7.8458 64.6022 8.42935 64.2104 8.92006 63.7167C9.89937 62.6504 10.4232 61.2437 10.38 59.7967V25.0667C10.38 31.0667 5.20003 30.9967 5.20003 30.9967Z" fill="#FFC91D"/>
<path d="M58.85 30.9967C58.85 30.9967 53.66 31.0667 53.66 25.0667V59.7967C53.6152 61.2458 54.1433 62.6543 55.13 63.7167C55.6034 64.2263 56.1801 64.6291 56.8216 64.8981C57.4631 65.1671 58.1546 65.2962 58.85 65.2766C59.5525 65.306 60.2529 65.1816 60.9024 64.9121C61.5518 64.6427 62.1346 64.2347 62.61 63.7167C63.5693 62.6409 64.0778 61.2372 64.03 59.7967V25.0667C64.03 31.1367 58.85 30.9967 58.85 30.9967Z" fill="#FFC91D"/>
<path d="M64.0199 7.54652C64.0987 6.12878 63.9329 4.70806 63.53 3.34652C63.1802 2.44199 62.5867 1.65203 61.8153 1.06424C61.0439 0.476448 60.1249 0.113801 59.16 0.0165179C57.07 -0.153482 55.0499 1.01652 53.4299 2.24652C47.1699 6.78652 40.14 13.0865 32.04 13.5065C23.93 13.0865 16.8999 6.78652 10.6399 2.24652C9.01994 1.06652 6.99997 -0.153482 4.91997 0.0165179C3.96003 0.117976 3.04676 0.482622 2.28093 1.07023C1.5151 1.65784 0.926446 2.44556 0.579942 3.34652C0.168796 4.70647 -0.000439033 6.12805 0.0799419 7.54652C0.0799419 12.9999 0.0632874 18.4499 0.0299541 23.8965C-0.0688015 25.3158 0.132187 26.74 0.61992 28.0765C0.975249 28.8623 1.52782 29.5428 2.22386 30.0519C2.9199 30.5611 3.73579 30.8815 4.59227 30.9822C5.44876 31.0828 6.31669 30.9602 7.1118 30.6263C7.90691 30.2924 8.60213 29.7585 9.12993 29.0765C11.0399 26.6065 10.2699 23.0765 10.4299 19.9865C10.6399 15.9865 14.19 17.2965 16.61 18.6265C21.14 21.1065 26.6099 23.8865 32.0699 23.9265C37.5299 23.9665 42.9899 21.1065 47.5199 18.6265C49.9399 17.2965 53.5199 15.9865 53.6999 19.9865C53.8599 23.1065 52.9599 26.6865 54.9499 29.1565C55.5046 29.8187 56.2159 30.332 57.0191 30.6498C57.8224 30.9677 58.6923 31.0799 59.5499 30.9765C60.4088 30.8707 61.2266 30.548 61.9264 30.0389C62.6261 29.5298 63.1848 28.8511 63.5499 28.0665C64.0345 26.7294 64.2322 25.3051 64.1299 23.8865C64.0833 18.4465 64.0466 12.9999 64.0199 7.54652Z" fill="white"/>
</svg>
