<svg width="14" height="21" viewBox="0 0 14 21" fill="none" xmlns="http://www.w3.org/2000/svg">
<path d="M6.87763 0C5.9656 0 5.09092 0.386591 4.44602 1.07473C3.80112 1.76286 3.43881 2.69618 3.43881 3.66935V9.17338C3.43881 10.1465 3.80112 11.0799 4.44602 11.768C5.09092 12.4561 5.9656 12.8427 6.87763 12.8427C7.78966 12.8427 8.66434 12.4561 9.30924 11.768C9.95414 11.0799 10.3164 10.1465 10.3164 9.17338V3.66935C10.3164 2.69618 9.95414 1.76286 9.30924 1.07473C8.66434 0.386591 7.78966 0 6.87763 0ZM5.15822 3.66935C5.15822 3.18276 5.33937 2.71611 5.66183 2.37204C5.98428 2.02797 6.42161 1.83467 6.87763 1.83467C7.33364 1.83467 7.77098 2.02797 8.09343 2.37204C8.41589 2.71611 8.59704 3.18276 8.59704 3.66935V9.17338C8.59704 9.65996 8.41589 10.1266 8.09343 10.4707C7.77098 10.8148 7.33364 11.008 6.87763 11.008C6.42161 11.008 5.98428 10.8148 5.66183 10.4707C5.33937 10.1266 5.15822 9.65996 5.15822 9.17338V3.66935ZM1.71941 8.25604C1.71941 8.01274 1.62883 7.77942 1.46761 7.60738C1.30638 7.43535 1.08771 7.3387 0.859704 7.3387C0.631696 7.3387 0.413027 7.43535 0.251802 7.60738C0.0905758 7.77942 0 8.01274 0 8.25604V9.17338C2.84337e-05 10.9609 0.61141 12.687 1.71941 14.0277C2.82741 15.3684 4.35586 16.2316 6.01793 16.4552V19.2641C6.01793 19.5074 6.1085 19.7407 6.26973 19.9127C6.43095 20.0848 6.64962 20.1814 6.87763 20.1814C7.10564 20.1814 7.32431 20.0848 7.48553 19.9127C7.64676 19.7407 7.73733 19.5074 7.73733 19.2641V16.4552C9.3994 16.2316 10.9278 15.3684 12.0358 14.0277C13.1438 12.687 13.7552 10.9609 13.7553 9.17338V8.25604C13.7553 8.01274 13.6647 7.77942 13.5035 7.60738C13.3422 7.43535 13.1236 7.3387 12.8956 7.3387C12.6675 7.3387 12.4489 7.43535 12.2877 7.60738C12.1264 7.77942 12.0359 8.01274 12.0359 8.25604V9.17338C12.0359 10.6331 11.4924 12.0331 10.525 13.0653C9.55769 14.0975 8.24568 14.6774 6.87763 14.6774C5.50958 14.6774 4.19757 14.0975 3.23022 13.0653C2.26286 12.0331 1.71941 10.6331 1.71941 9.17338V8.25604Z" fill="#1D386D"/>
</svg>
