<svg width="26" height="15" viewBox="0 0 26 15" fill="none" xmlns="http://www.w3.org/2000/svg">
<path d="M25.4556 14.3253C25.107 14.6737 24.6343 14.8695 24.1414 14.8695C23.6485 14.8695 23.1758 14.6737 22.8272 14.3253L12.9887 4.48671L3.15011 14.3253C2.79954 14.6639 2.33 14.8512 1.84264 14.847C1.35527 14.8428 0.889061 14.6473 0.544427 14.3026C0.199793 13.958 0.00430536 13.4918 7.02667e-05 13.0044C-0.00416483 12.5171 0.183191 12.0475 0.521784 11.697L11.6745 0.544228C12.0231 0.195759 12.4958 0 12.9887 0C13.4816 0 13.9543 0.195759 14.3028 0.544228L25.4556 11.697C25.804 12.0455 25.9998 12.5182 25.9998 13.0111C25.9998 13.504 25.804 13.9767 25.4556 14.3253Z" fill="#95E8B7"/>
</svg>
