<svg width="574" height="218" viewBox="0 0 574 218" fill="none" xmlns="http://www.w3.org/2000/svg">
<g opacity="0.8">
<g style="mix-blend-mode:multiply" opacity="0.2">
<path d="M233.53 172.047C264.202 201.334 302.623 217.213 339.802 217.213C376.981 217.213 413.246 201.334 443.917 172.085C474.589 201.334 510.817 217.213 547.996 217.213C585.175 217.213 621.439 201.334 652.147 172.085C682.819 201.334 719.047 217.213 756.226 217.213C793.405 217.213 829.669 201.334 860.341 172.085C885.054 150.738 882.677 129.241 877.962 122.762C869.773 111.527 851.494 112.089 842.72 122.762C825.063 144.334 795.671 170.1 756.226 170.1C716.781 170.1 687.425 144.334 669.731 122.762C667.577 120.126 664.884 118.006 661.843 116.551C658.801 115.096 655.486 114.342 652.129 114.342C648.773 114.342 645.457 115.096 642.416 116.551C639.374 118.006 636.682 120.126 634.527 122.762C616.833 144.334 587.441 170.1 547.996 170.1C508.551 170.1 479.195 144.334 461.538 122.762C459.31 120.24 456.591 118.224 453.556 116.844C450.521 115.464 447.238 114.751 443.917 114.751C440.597 114.751 437.313 115.464 434.278 116.844C431.243 118.224 428.524 120.24 426.297 122.762C408.603 144.334 379.247 170.1 339.802 170.1C300.357 170.1 275.023 149.015 253.746 131.151C233.676 114.336 199.422 138.155 233.53 172.047Z" fill="#1D386D"/>
</g>
<path opacity="0.5" d="M14.4728 58.4188C45.1443 87.7052 83.5661 103.547 120.745 103.547C157.924 103.547 194.188 87.7051 224.86 58.606C255.531 87.8549 291.76 103.547 328.938 103.547C366.117 103.547 402.382 87.7051 433.09 58.606C463.725 87.8549 499.99 103.547 537.169 103.547C574.347 103.547 610.612 87.7051 641.284 58.606C665.997 37.2591 663.62 15.7625 658.904 9.28351C650.716 -1.95169 632.437 -1.38993 623.663 9.28351C606.006 30.8551 576.614 56.5837 537.169 56.5837C497.723 56.5837 468.368 30.8551 450.674 9.28351C448.519 6.64714 445.826 4.52687 442.785 3.07206C439.744 1.61724 436.428 0.863281 433.072 0.863281C429.715 0.863281 426.4 1.61724 423.358 3.07206C420.317 4.52687 417.624 6.64714 415.469 9.28351C397.776 30.8551 368.384 56.5837 328.938 56.5837C289.493 56.5837 260.138 30.8551 242.481 9.28351C240.253 6.76112 237.534 4.74502 234.499 3.36521C231.464 1.9854 228.18 1.27244 224.86 1.27244C221.539 1.27244 218.256 1.9854 215.221 3.36521C212.186 4.74502 209.467 6.76112 207.239 9.28351C189.546 30.8551 160.19 56.5837 120.745 56.5837C81.2995 56.5837 55.9653 35.5364 34.689 17.6724C14.619 0.70727 -19.6351 24.5259 14.4728 58.4188Z" fill="#5E85D2"/>
</g>
</svg>
