<svg width="41" height="28" viewBox="0 0 41 28" fill="none" xmlns="http://www.w3.org/2000/svg">
<path d="M2 6.98985C5.42856 3.18934 10.9681 0.790274 16.0316 2.63352C20.292 4.18223 23.5667 7.12287 28.308 7.32239C32.3617 7.49342 36.4346 5.93996 38.8341 2.61452" stroke="#1D386D" stroke-width="3.50801" stroke-miterlimit="10" stroke-linecap="round"/>
<path d="M2 16.3199C5.42856 12.5194 10.9681 10.1203 16.0316 11.9635C20.292 13.517 23.5667 16.4529 28.308 16.6572C32.3617 16.8282 36.4346 15.2747 38.8341 11.9493" stroke="#1D386D" stroke-width="3.50801" stroke-miterlimit="10" stroke-linecap="round"/>
<path d="M2 25.6547C5.42856 21.8542 10.9681 19.4552 16.0316 21.2984C20.292 22.8471 23.5667 25.7878 28.308 25.9873C32.3617 26.1583 36.4346 24.6096 38.8341 21.2794" stroke="#1D386D" stroke-width="3.50801" stroke-miterlimit="10" stroke-linecap="round"/>
</svg>
