<svg width="208" height="30" viewBox="0 0 208 30" fill="none" xmlns="http://www.w3.org/2000/svg">
<g clip-path="url(#clip0)">
<path d="M147.435 29.3628C145.196 29.4189 142.981 28.8869 141.012 27.82C139.24 26.8433 137.788 25.3769 136.828 23.5964C135.842 21.7281 135.344 19.6409 135.38 17.5286C135.311 15.1987 135.857 12.8917 136.963 10.8401C137.935 9.07942 139.363 7.61276 141.097 6.59402C142.733 5.63079 144.596 5.1215 146.495 5.11868C147.928 5.11862 149.345 5.42535 150.651 6.01828C151.955 6.603 153.135 7.43206 154.128 8.46068C155.152 9.51938 155.972 10.7575 156.548 12.113C157.153 13.5222 157.459 15.0415 157.447 16.575C157.455 16.8777 157.393 17.1781 157.267 17.4532C157.14 17.7284 156.953 17.9711 156.719 18.1628C156.249 18.5668 155.647 18.7844 155.027 18.7745H138.061L136.873 14.7264H153.242L152.297 15.5045V14.353C152.24 13.4518 151.902 12.5912 151.33 11.8926C150.75 11.1658 150.013 10.5786 149.176 10.1746C148.338 9.7705 147.42 9.55984 146.49 9.55819C145.641 9.55461 144.796 9.6805 143.985 9.93152C143.212 10.1815 142.514 10.6188 141.952 11.2044C141.321 11.8799 140.841 12.6818 140.544 13.5569C140.161 14.7353 139.983 15.9707 140.018 17.2093C139.975 18.6547 140.325 20.0846 141.03 21.3474C141.653 22.4397 142.556 23.3457 143.647 23.972C144.737 24.5983 145.975 24.922 147.232 24.9098C148.106 24.9317 148.98 24.8349 149.828 24.6219C150.418 24.4696 150.982 24.2252 151.496 23.8977C151.946 23.6054 152.32 23.34 152.643 23.1061C153.073 22.8604 153.557 22.7244 154.051 22.7103C154.592 22.7102 155.111 22.9221 155.497 23.3006C155.883 23.6791 156.105 24.1939 156.116 24.7344C156.102 25.1213 155.995 25.4993 155.804 25.8361C155.613 26.1729 155.344 26.4584 155.018 26.6685C154.062 27.4991 152.957 28.1416 151.762 28.5621C150.381 29.094 148.914 29.3654 147.435 29.3628Z" fill="#C6C6C5"/>
<path d="M98.002 5.06922C100.007 5.0832 101.976 5.6113 103.719 6.60303C105.492 7.62699 106.958 9.10715 107.965 10.8896C109.002 12.8266 109.545 14.9897 109.545 17.1868C109.545 19.3839 109.002 21.547 107.965 23.4839C106.953 25.2571 105.488 26.7288 103.719 27.748C101.982 28.7392 100.02 29.2674 98.0199 29.2818C98.2133 29.2548 98.2853 29.2324 98.2763 29.2189C98.1919 29.2405 98.1063 29.257 98.0199 29.2683H97.7141H97.4352C97.3486 29.2584 97.2629 29.2418 97.1788 29.2189C96.6617 29.092 96.2074 28.7837 95.8985 28.3501C95.5895 27.9165 95.4466 27.3863 95.4956 26.8562C95.5447 26.326 95.7824 25.8311 96.1656 25.4615C96.5489 25.0919 97.0521 24.8722 97.5836 24.8423H97.7276H97.8625C99.0666 24.8364 100.247 24.5037 101.276 23.8798C102.341 23.2224 103.208 22.2901 103.786 21.181C104.424 19.9447 104.741 18.5683 104.708 17.1778C104.744 15.7725 104.427 14.3807 103.786 13.1296C103.208 12.0205 102.341 11.0881 101.276 10.4308C100.237 9.80159 99.0458 9.46872 97.831 9.46824H97.6916C97.1293 9.45687 96.5921 9.23311 96.188 8.84192C95.7839 8.45073 95.5428 7.92111 95.5132 7.35946C95.4836 6.79781 95.6676 6.24575 96.0283 5.81423C96.389 5.38271 96.8997 5.10369 97.4577 5.03323H97.7141H98.002" fill="#95E8B7"/>
<path d="M97.4712 5.06922C95.4657 5.0832 93.4974 5.6113 91.7543 6.60303C89.988 7.62953 88.5283 9.10946 87.5262 10.8896C86.4891 12.8266 85.9464 14.9897 85.9464 17.1868C85.9464 19.3839 86.4891 21.547 87.5262 23.4839C88.5378 25.2571 90.0034 26.7288 91.7722 27.748C93.5091 28.7392 95.4715 29.2674 97.4712 29.2818C97.2778 29.2548 97.2058 29.2324 97.2148 29.2189C97.2992 29.2405 97.3848 29.257 97.4712 29.2683H97.777H98.0559C98.1425 29.2584 98.2282 29.2418 98.3123 29.2189C98.8294 29.092 99.2837 28.7837 99.5927 28.3501C99.9016 27.9165 100.045 27.3863 99.9955 26.8562C99.9465 26.326 99.7087 25.8311 99.3255 25.4615C98.9423 25.0919 98.4391 24.8722 97.9075 24.8423H97.7636H97.6331C96.4275 24.837 95.2459 24.5042 94.2146 23.8798C93.1504 23.2224 92.2833 22.2901 91.7048 21.181C91.0673 19.9447 90.7503 18.5683 90.7827 17.1778C90.7468 15.7725 91.0638 14.3807 91.7048 13.1296C92.2833 12.0205 93.1504 11.0881 94.2146 10.4308C95.2538 9.80159 96.4453 9.46872 97.6601 9.46824H97.7995C98.3618 9.45687 98.899 9.23311 99.3031 8.84192C99.7072 8.45073 99.9483 7.92111 99.9779 7.35946C100.008 6.79781 99.8235 6.24575 99.4628 5.81423C99.1021 5.38271 98.5914 5.10369 98.0334 5.03323H97.777H97.4892" fill="#1D386D"/>
<path d="M45.9154 5.06922C47.9208 5.0832 49.8892 5.6113 51.6323 6.60303C53.4051 7.62699 54.8713 9.10715 55.8784 10.8896C56.9155 12.8266 57.4581 14.9897 57.4581 17.1868C57.4581 19.3839 56.9155 21.547 55.8784 23.4839C54.8667 25.2571 53.4011 26.7288 51.6323 27.748C49.8955 28.7392 47.933 29.2674 45.9334 29.2818C46.1268 29.2548 46.1987 29.2324 46.1897 29.2189C46.1054 29.2405 46.0197 29.257 45.9334 29.2683H45.6275H45.3486C45.262 29.2584 45.1763 29.2418 45.0922 29.2189C44.5751 29.092 44.1208 28.7837 43.8119 28.3501C43.5029 27.9165 43.36 27.3863 43.409 26.8562C43.4581 26.326 43.6958 25.8311 44.0791 25.4615C44.4623 25.0919 44.9655 24.8722 45.497 24.8423H45.641H45.7759C46.9801 24.8364 48.16 24.5037 49.1899 23.8798C50.2542 23.2224 51.1213 22.2901 51.6998 21.181C52.3372 19.9447 52.6543 18.5683 52.6218 17.1778C52.6578 15.7725 52.3407 14.3807 51.6998 13.1296C51.1213 12.0205 50.2542 11.0881 49.1899 10.4308C48.1507 9.80159 46.9592 9.46872 45.7444 9.46824H45.605C45.0427 9.45687 44.5055 9.23311 44.1014 8.84192C43.6973 8.45073 43.4562 7.92111 43.4266 7.35946C43.397 6.79781 43.581 6.24575 43.9417 5.81423C44.3024 5.38271 44.8131 5.10369 45.3711 5.03323H45.6275H45.9154" fill="#FFC91D"/>
<path d="M45.3846 5.06922C43.3791 5.0832 41.4108 5.6113 39.6677 6.60303C37.8948 7.62699 36.4287 9.10715 35.4216 10.8896C34.3845 12.8266 33.8419 14.9897 33.8419 17.1868C33.8419 19.3839 34.3845 21.547 35.4216 23.4839C36.4333 25.2571 37.8988 26.7288 39.6677 27.748C41.4045 28.7392 43.3669 29.2674 45.3666 29.2818C45.1732 29.2548 45.1012 29.2324 45.1102 29.2189C45.1946 29.2405 45.2802 29.257 45.3666 29.2683H45.6725H45.9513C46.0379 29.2584 46.1236 29.2418 46.2077 29.2189C46.7248 29.092 47.1792 28.7837 47.4881 28.3501C47.797 27.9165 47.94 27.3863 47.8909 26.8562C47.8419 26.326 47.6041 25.8311 47.2209 25.4615C46.8377 25.0919 46.3345 24.8722 45.8029 24.8423H45.659H45.524C44.3199 24.8364 43.14 24.5037 42.1101 23.8798C41.0458 23.2224 40.1787 22.2901 39.6002 21.181C38.9705 19.9427 38.6612 18.5664 38.7006 17.1778C38.6577 15.7744 38.967 14.3827 39.6002 13.1296C40.1787 12.0205 41.0458 11.0881 42.1101 10.4308C43.1492 9.80159 44.3407 9.46872 45.5555 9.46824H45.695C46.2573 9.45687 46.7944 9.23311 47.1986 8.84192C47.6027 8.45073 47.8437 7.92111 47.8734 7.35946C47.903 6.79781 47.7189 6.24575 47.3582 5.81423C46.9975 5.38271 46.4869 5.10369 45.9289 5.03323H45.6725H45.3846" fill="#1D386D"/>
<path d="M81.229 10.2464C81.2433 10.3568 81.2509 10.4679 81.2515 10.5793C81.251 11.1485 81.0629 11.7016 80.7161 12.153C80.3693 12.6043 79.8833 12.9287 79.3334 13.0758C78.7836 13.2229 78.2005 13.1844 77.6747 12.9665C77.1489 12.7485 76.7097 12.3631 76.4251 11.8702C76.4656 11.9646 76.5061 12.0636 76.5421 12.167C76.8306 13.0371 76.972 13.9492 76.9604 14.8658V26.3896C76.9502 26.7133 77.005 27.0358 77.1217 27.3379C77.2384 27.64 77.4145 27.9156 77.6396 28.1484C78.1049 28.6014 78.7286 28.855 79.3781 28.855C80.0275 28.855 80.6513 28.6014 81.1165 28.1484C81.3423 27.9158 81.5191 27.6403 81.6365 27.3382C81.7539 27.0362 81.8096 26.7136 81.8002 26.3896V14.8748C81.8148 13.3136 81.6227 11.7573 81.229 10.2464Z" fill="#FFC91D"/>
<path d="M81.229 10.2419C81.1975 10.1339 81.1705 10.026 81.139 9.91804C81.0851 9.73812 81.0266 9.56271 80.9591 9.38728C80.5337 8.20285 79.7821 7.1628 78.7911 6.38713C77.6606 5.50552 76.0248 5.06473 73.8838 5.06473C72.9166 5.05947 71.956 5.22389 71.0456 5.5505C70.1871 5.85408 69.3789 6.28468 68.6481 6.82793C67.9803 7.32307 67.376 7.89866 66.8489 8.54166C66.705 8.72158 66.5746 8.897 66.4531 9.07242V7.96592C66.4657 7.32005 66.2214 6.6956 65.7739 6.2297C65.5493 5.99903 65.2807 5.81568 64.9841 5.6905C64.6874 5.56531 64.3687 5.50081 64.0467 5.50081C63.7247 5.50081 63.406 5.56531 63.1093 5.6905C62.8127 5.81568 62.5441 5.99903 62.3195 6.2297C62.0908 6.45653 61.9103 6.72727 61.789 7.02565C61.6676 7.32402 61.6079 7.64386 61.6133 7.96592V26.4076C61.6039 26.7316 61.6596 27.0542 61.777 27.3562C61.8945 27.6583 62.0713 27.9338 62.297 28.1663C62.7623 28.6194 63.386 28.8729 64.0355 28.8729C64.6849 28.8729 65.3087 28.6194 65.7739 28.1663C65.9991 27.9336 66.1752 27.6579 66.2918 27.3558C66.4085 27.0537 66.4634 26.7313 66.4531 26.4076V14.8748C66.4421 13.9252 66.6943 12.9911 67.1818 12.176C67.6663 11.3657 68.3569 10.6983 69.1834 10.2419C70.1272 9.7332 71.1883 9.48189 72.26 9.51323C73.2662 9.45198 74.2664 9.70674 75.1207 10.2419C75.6014 10.5837 75.997 11.0315 76.2767 11.5508C76.1868 11.3259 76.1868 11.3259 76.2767 11.5508C76.3307 11.6588 76.3847 11.7667 76.4341 11.8792C76.7258 12.358 77.1651 12.729 77.6859 12.9365C78.2068 13.1439 78.7809 13.1765 79.3219 13.0294C79.8629 12.8822 80.3414 12.5632 80.6853 12.1205C81.0293 11.6778 81.2201 11.1353 81.229 10.5748C81.2358 10.4639 81.2358 10.3527 81.229 10.2419Z" fill="#1D386D"/>
<path d="M207.433 10.2464C207.44 10.3572 207.44 10.4684 207.433 10.5793C207.433 11.1485 207.245 11.7016 206.898 12.153C206.551 12.6043 206.065 12.9287 205.515 13.0758C204.965 13.2229 204.382 13.1844 203.857 12.9665C203.331 12.7485 202.891 12.3631 202.607 11.8702C202.651 11.9669 202.69 12.066 202.724 12.167C203.012 13.0371 203.154 13.9492 203.142 14.8658V26.3896C203.132 26.7137 203.187 27.0366 203.304 27.3388C203.422 27.641 203.599 27.9164 203.826 28.1484C204.29 28.6011 204.913 28.8546 205.562 28.8546C206.211 28.8546 206.834 28.6011 207.298 28.1484C207.524 27.9158 207.701 27.6403 207.818 27.3382C207.936 27.0362 207.991 26.7136 207.982 26.3896V14.8748C208.004 13.3146 207.819 11.7583 207.433 10.2464Z" fill="#95E8B7"/>
<path d="M207.433 10.2419C207.402 10.134 207.375 10.026 207.343 9.91806C207.289 9.73814 207.231 9.56272 207.168 9.3873C206.739 8.20335 205.986 7.16375 204.995 6.38714C203.868 5.50554 202.232 5.06474 200.088 5.06474C199.121 5.05986 198.16 5.22426 197.25 5.55052C196.392 5.85508 195.584 6.28561 194.852 6.82795C194.185 7.32309 193.58 7.89867 193.053 8.54168C192.909 8.7216 192.783 8.89701 192.657 9.07243V7.96594C192.67 7.32007 192.426 6.69561 191.978 6.22972C191.754 5.99904 191.485 5.8157 191.188 5.69051C190.892 5.56532 190.573 5.50083 190.251 5.50083C189.929 5.50083 189.61 5.56532 189.314 5.69051C189.017 5.8157 188.748 5.99904 188.524 6.22972C188.298 6.45828 188.121 6.72964 188.002 7.02782C187.883 7.32599 187.825 7.64496 187.831 7.96594V26.4076C187.821 26.7313 187.876 27.0538 187.992 27.3559C188.109 27.658 188.285 27.9336 188.51 28.1664C188.976 28.6194 189.599 28.873 190.249 28.873C190.898 28.873 191.522 28.6194 191.987 28.1664C192.212 27.9336 192.388 27.658 192.505 27.3559C192.622 27.0538 192.677 26.7313 192.666 26.4076V14.8748C192.655 13.9252 192.908 12.9911 193.395 12.176C193.881 11.3666 194.571 10.6995 195.397 10.2419C196.34 9.73321 197.402 9.48191 198.473 9.51324C199.479 9.45199 200.48 9.70676 201.334 10.2419C201.816 10.5823 202.212 11.0305 202.49 11.5508C202.4 11.3259 202.4 11.3259 202.49 11.5508C202.549 11.6571 202.601 11.7668 202.647 11.8792C202.932 12.3722 203.371 12.7575 203.897 12.9755C204.423 13.1934 205.006 13.2319 205.556 13.0848C206.106 12.9377 206.592 12.6133 206.938 12.162C207.285 11.7106 207.473 11.1575 207.474 10.5883C207.468 10.4721 207.454 10.3564 207.433 10.2419Z" fill="#1D386D"/>
<path d="M123.847 5.06022C125.3 5.03794 126.749 5.20886 128.156 5.56849C129.215 5.81715 130.201 6.30662 131.04 6.99884C131.359 7.26032 131.618 7.58881 131.796 7.9611C131.975 8.3334 132.07 8.74041 132.074 9.15338C132.076 9.70423 131.907 10.242 131.588 10.6917C131.435 10.9211 131.224 11.1067 130.978 11.2304C130.731 11.3542 130.456 11.4119 130.18 11.3979C129.79 11.4115 129.401 11.3441 129.038 11.2C128.751 11.0718 128.49 10.8919 128.269 10.6692C128.014 10.4295 127.724 10.2294 127.41 10.0755C126.977 9.85551 126.507 9.71534 126.024 9.66165C125.522 9.57006 125.014 9.51742 124.504 9.50422C123.13 9.46432 121.773 9.81527 120.591 10.5163C119.518 11.1776 118.65 12.1224 118.081 13.2465C117.475 14.4765 117.174 15.8341 117.204 17.2048C117.179 18.5606 117.48 19.9026 118.081 21.118C118.645 22.238 119.506 23.1822 120.568 23.8483C121.671 24.5318 122.946 24.8832 124.243 24.8603C124.921 24.8678 125.598 24.8167 126.267 24.7074C126.739 24.6325 127.195 24.4806 127.617 24.2576C128.021 24.0491 128.397 23.7907 128.737 23.4884C129.131 23.1819 129.624 23.0328 130.122 23.0701C130.425 23.0519 130.729 23.1014 131.01 23.215C131.292 23.3286 131.545 23.5034 131.75 23.7268C132.136 24.1799 132.34 24.7603 132.322 25.3551C132.322 26.0613 131.921 26.7045 131.112 27.2937C130.14 27.9572 129.061 28.4473 127.923 28.7421C126.521 29.1364 125.07 29.3302 123.613 29.3178C121.564 29.3872 119.538 28.8607 117.782 27.8021C116.025 26.7435 114.614 25.1982 113.718 23.3535C112.778 21.4467 112.303 19.3441 112.333 17.2183C112.288 15.0313 112.787 12.8675 113.785 10.9211C114.712 9.14537 116.114 7.66154 117.834 6.63451C119.653 5.56023 121.735 5.01501 123.847 5.06022Z" fill="#95E8B7"/>
<path d="M131.04 6.99885C130.201 6.30663 129.215 5.81716 128.156 5.5685C126.749 5.20887 125.3 5.03795 123.847 5.06023C121.747 5.01817 119.676 5.56006 117.865 6.62553C116.145 7.65256 114.744 9.13639 113.817 10.9121C112.822 12.8499 112.322 15.0042 112.364 17.1823C112.364 17.2273 112.364 17.2767 112.364 17.3217C112.363 17.6403 112.425 17.9559 112.546 18.2505C112.667 18.5452 112.845 18.813 113.07 19.0387C113.294 19.2643 113.562 19.4434 113.856 19.5656C114.15 19.6877 114.465 19.7506 114.784 19.7506C115.142 19.7492 115.496 19.6677 115.819 19.512C116.142 19.3564 116.426 19.1306 116.651 18.851C116.956 18.4845 117.144 18.0348 117.19 17.5601C117.195 17.4777 117.195 17.3951 117.19 17.3127C117.19 17.2677 117.19 17.2183 117.19 17.1733C117.166 15.8104 117.467 14.4614 118.067 13.2376C118.636 12.1135 119.505 11.1686 120.577 10.5073C121.76 9.80628 123.117 9.45533 124.491 9.49523C125.001 9.50844 125.509 9.56107 126.011 9.65267C126.494 9.70635 126.963 9.84652 127.396 10.0665C127.711 10.2204 128 10.4205 128.255 10.6602C128.477 10.8829 128.738 11.0628 129.025 11.191C129.388 11.3351 129.777 11.4025 130.167 11.3889C130.443 11.4029 130.717 11.3452 130.964 11.2215C131.211 11.0977 131.421 10.9121 131.575 10.6827C131.893 10.233 132.063 9.69524 132.061 9.14439C132.057 8.73401 131.963 8.32942 131.787 7.95885C131.611 7.58828 131.356 7.26065 131.04 6.99885Z" fill="#1D386D"/>
<path d="M147.435 29.3628C145.196 29.4189 142.981 28.8869 141.012 27.82C139.24 26.8433 137.788 25.3769 136.828 23.5964C135.842 21.7281 135.344 19.6409 135.38 17.5286C135.311 15.1987 135.857 12.8917 136.963 10.8401C137.935 9.07942 139.363 7.61276 141.097 6.59402C142.733 5.63079 144.596 5.1215 146.495 5.11868C147.928 5.11862 149.345 5.42535 150.651 6.01828C151.955 6.603 153.135 7.43206 154.128 8.46068C155.152 9.51938 155.972 10.7575 156.548 12.113C157.153 13.5222 157.459 15.0415 157.447 16.575C157.455 16.8777 157.393 17.1781 157.267 17.4532C157.14 17.7284 156.953 17.9711 156.719 18.1628C156.249 18.5668 155.647 18.7844 155.027 18.7745H138.061L136.873 14.7264H152.297V14.353C152.24 13.4518 151.902 12.5912 151.33 11.8926C150.75 11.1658 150.013 10.5786 149.176 10.1746C148.338 9.7705 147.42 9.55984 146.49 9.55819C145.641 9.55461 144.796 9.6805 143.985 9.93152C143.212 10.1815 142.514 10.6188 141.952 11.2044C141.321 11.8799 140.841 12.6818 140.544 13.5569C140.161 14.7353 139.983 15.9707 140.018 17.2093C139.975 18.6547 140.325 20.0846 141.03 21.3474C141.653 22.4397 142.556 23.3457 143.647 23.972C144.737 24.5983 145.975 24.922 147.232 24.9098C148.106 24.9317 148.98 24.8349 149.828 24.6219C150.418 24.4696 150.982 24.2252 151.496 23.8977C151.946 23.6054 152.32 23.34 152.643 23.1061C153.073 22.8604 153.557 22.7244 154.051 22.7103C154.592 22.7102 155.111 22.9221 155.497 23.3006C155.883 23.6791 156.105 24.1939 156.116 24.7344C156.102 25.1213 155.995 25.4993 155.804 25.8361C155.613 26.1729 155.344 26.4584 155.018 26.6685C154.062 27.4991 152.957 28.1416 151.762 28.5621C150.381 29.094 148.914 29.3654 147.435 29.3628Z" fill="#95E8B7"/>
<path d="M179.892 5.15019C180.213 5.13944 180.532 5.19456 180.831 5.31215C181.13 5.42974 181.401 5.60731 181.628 5.83388C181.86 6.07075 182.04 6.35274 182.158 6.66229C182.275 6.97184 182.328 7.3023 182.312 7.63307V26.4166C182.321 26.7406 182.266 27.0632 182.148 27.3652C182.031 27.6673 181.854 27.9428 181.628 28.1753C181.164 28.6281 180.541 28.8815 179.892 28.8815C179.243 28.8815 178.62 28.6281 178.156 28.1753C177.93 27.9428 177.753 27.6673 177.636 27.3652C177.519 27.0632 177.463 26.7406 177.472 26.4166V23.7763L178.399 24.0417C178.351 24.6111 178.136 25.1538 177.783 25.6025C177.312 26.2665 176.74 26.8523 176.087 27.3387C175.316 27.927 174.465 28.4011 173.559 28.7466C172.555 29.1351 171.487 29.3304 170.41 29.3223C168.471 29.3466 166.566 28.8024 164.932 27.757C163.288 26.6988 161.958 25.2183 161.082 23.4705C160.153 21.501 159.672 19.3506 159.672 17.1733C159.672 14.996 160.153 12.8456 161.082 10.8761C161.948 9.14132 163.261 7.66926 164.887 6.61203C166.479 5.58633 168.337 5.04994 170.23 5.06923C171.421 5.05828 172.605 5.25306 173.73 5.64497C174.73 5.98567 175.666 6.49034 176.501 7.1383C177.208 7.68172 177.825 8.33464 178.327 9.07243C178.709 9.58596 178.938 10.1973 178.988 10.8356L177.486 11.2045V7.60609C177.477 7.2815 177.533 6.95838 177.65 6.65563C177.767 6.35288 177.944 6.07657 178.169 5.84288C178.393 5.61484 178.662 5.43559 178.958 5.31638C179.255 5.19717 179.573 5.14058 179.892 5.15019ZM170.964 24.8603C172.212 24.8887 173.439 24.5357 174.481 23.8483C175.495 23.155 176.307 22.2051 176.833 21.0955C177.423 19.8687 177.718 18.5208 177.693 17.1598C177.714 15.8136 177.42 14.481 176.833 13.269C176.307 12.1595 175.495 11.2095 174.481 10.5163C173.439 9.82891 172.212 9.47585 170.964 9.50423C169.74 9.48628 168.538 9.83056 167.509 10.4938C166.484 11.1706 165.663 12.1147 165.134 13.2241C164.568 14.4589 164.275 15.8014 164.275 17.1598C164.275 18.5182 164.568 19.8606 165.134 21.0955C165.665 22.2093 166.485 23.16 167.509 23.8483C168.532 24.5263 169.736 24.879 170.964 24.8603Z" fill="#95E8B7"/>
<path d="M170.694 24.8558C169.559 24.8268 168.456 24.4792 167.509 23.8528C166.485 23.1645 165.665 22.2138 165.134 21.1C164.568 19.8651 164.275 18.5227 164.275 17.1643C164.275 15.8059 164.568 14.4634 165.134 13.2286C165.663 12.1192 166.484 11.1751 167.509 10.4983C168.46 9.88455 169.562 9.54524 170.694 9.51773C171.282 9.51773 171.846 9.28409 172.262 8.86823C172.678 8.45237 172.911 7.88834 172.911 7.30023C172.911 6.71211 172.678 6.14808 172.262 5.73221C171.846 5.31635 171.282 5.08272 170.694 5.08272C170.536 5.08272 170.379 5.08272 170.217 5.08272C168.332 5.06024 166.481 5.58863 164.891 6.60304C163.266 7.66026 161.952 9.13232 161.086 10.8671C160.158 12.8366 159.676 14.987 159.676 17.1643C159.676 19.3416 160.158 21.492 161.086 23.4615C161.962 25.2093 163.292 26.6898 164.936 27.748C166.571 28.7934 168.475 29.3376 170.415 29.3133H170.689H170.716C171.306 29.3133 171.871 29.0792 172.287 28.6625C172.704 28.2458 172.938 27.6806 172.938 27.0913C172.938 26.502 172.704 25.9368 172.287 25.5201C171.871 25.1034 171.306 24.8693 170.716 24.8693L170.694 24.8558Z" fill="#1D386D"/>
<path d="M146.594 24.8918C145.445 24.805 144.335 24.4372 143.361 23.8207C142.388 23.2043 141.581 22.358 141.012 21.3564C140.547 20.5557 140.242 19.673 140.112 18.7566H146.589C147.103 18.7223 147.584 18.4942 147.935 18.1184C148.287 17.7425 148.483 17.2471 148.483 16.7325C148.483 16.2178 148.287 15.7224 147.935 15.3466C147.584 14.9708 147.103 14.7426 146.589 14.7084C146.516 14.7038 146.442 14.7038 146.369 14.7084H140.215C140.29 14.3188 140.394 13.9354 140.526 13.5614C140.828 12.6832 141.314 11.8796 141.952 11.2045C142.524 10.6121 143.235 10.1729 144.021 9.92705C144.832 9.67603 145.677 9.55014 146.526 9.55371H146.612C147.201 9.55371 147.766 9.31961 148.183 8.9029C148.599 8.4862 148.834 7.92102 148.834 7.33171C148.834 6.7424 148.599 6.17723 148.183 5.76052C147.766 5.34382 147.201 5.10971 146.612 5.10971H146.526C144.628 5.11253 142.764 5.62182 141.129 6.58505C139.395 7.60379 137.967 9.07045 136.995 10.8311C135.888 12.8827 135.342 15.1897 135.412 17.5196C135.375 19.632 135.874 21.7192 136.86 23.5874C137.82 25.368 139.272 26.8343 141.043 27.811C142.662 28.6996 144.461 29.2101 146.306 29.3043C146.411 29.3224 146.518 29.3315 146.625 29.3313C147.198 29.3056 147.738 29.06 148.134 28.6457C148.53 28.2314 148.752 27.6803 148.752 27.1071C148.752 26.5339 148.53 25.9828 148.134 25.5685C147.738 25.1542 147.198 24.9086 146.625 24.8828L146.594 24.8918Z" fill="#1D386D"/>
<path d="M2.33895 13.9392C2.33895 13.9392 0.00899625 14.0202 0.00899625 11.2719V26.8979C-0.0121184 27.5437 0.214821 28.173 0.643209 28.6566C0.863005 28.8803 1.12516 29.058 1.41438 29.1793C1.7036 29.3006 2.01408 29.3631 2.3277 29.3631C2.64133 29.3631 2.95181 29.3006 3.24103 29.1793C3.53024 29.058 3.7924 28.8803 4.0122 28.6566C4.45242 28.1787 4.68812 27.5474 4.6689 26.8979V11.2719C4.6689 13.9707 2.33895 13.9392 2.33895 13.9392Z" fill="#FFC91D"/>
<path d="M26.4706 13.9392C26.4706 13.9392 24.1407 13.9707 24.1407 11.2719V26.8979C24.119 27.5478 24.355 28.18 24.7974 28.6566C25.0101 28.8865 25.2693 29.0683 25.5579 29.1901C25.8464 29.3118 26.1575 29.3707 26.4706 29.3628C26.7854 29.3738 27.0988 29.3164 27.3893 29.1944C27.6797 29.0725 27.9402 28.889 28.1528 28.6566C28.5845 28.1746 28.8133 27.5446 28.7916 26.8979V11.2719C28.8006 14.0202 26.4706 13.9392 26.4706 13.9392Z" fill="#FFC91D"/>
<path d="M28.8004 3.39599C28.8326 2.75809 28.7566 2.11935 28.5755 1.50684C28.4184 1.09943 28.1517 0.743439 27.8047 0.478285C27.4578 0.213131 27.0443 0.049156 26.6099 0.00451338C25.6698 -0.0719523 24.7612 0.476803 24.0326 1.00756C21.2213 3.05414 18.0593 5.88337 14.4114 6.07679C10.7635 5.88337 7.60146 3.05414 4.79022 1.00756C4.05705 0.476803 3.15296 -0.0719523 2.21288 0.00451338C1.78172 0.052306 1.37198 0.217723 1.02849 0.482681C0.684999 0.747639 0.420965 1.10194 0.265258 1.50684C0.0842079 2.11935 0.00816702 2.75809 0.0403586 3.39599C0.0403586 5.84889 0.0403586 8.30029 0.0403586 10.7502C-0.00760435 11.3869 0.0813525 12.0264 0.301242 12.6258C0.461068 12.9793 0.70959 13.2854 1.02267 13.5144C1.33575 13.7434 1.70273 13.8875 2.08798 13.9328C2.47323 13.9781 2.86363 13.9229 3.22127 13.7727C3.5789 13.6225 3.89161 13.3824 4.12902 13.0756C4.98813 11.9646 4.64179 10.3769 4.71376 8.98698C4.80822 7.18779 6.4095 7.78152 7.49351 8.37526C9.49511 9.49975 11.96 10.7547 14.4114 10.7547C16.8628 10.7547 19.3232 9.48625 21.3653 8.36626C22.4493 7.77252 24.0641 7.17879 24.145 8.97798C24.217 10.3814 23.8077 11.9916 24.7028 13.1071C24.9538 13.4031 25.274 13.6326 25.6348 13.7754C25.9957 13.9182 26.3862 13.9698 26.7718 13.9258C27.1586 13.8777 27.5268 13.7319 27.8416 13.5021C28.1564 13.2723 28.4074 12.9661 28.571 12.6124C28.7909 12.0129 28.8799 11.3734 28.8319 10.7367C28.8199 8.29579 28.8094 5.84889 28.8004 3.39599Z" fill="#1D386D"/>
</g>
<defs>
<clipPath id="clip0">
<rect width="208" height="29.3628" fill="white"/>
</clipPath>
</defs>
</svg>
