<svg width="71" height="71" viewBox="0 0 71 71" fill="none" xmlns="http://www.w3.org/2000/svg">
<g filter="url(#filter0_d)">
<path d="M35.5 58.9178C50.6878 58.9178 63 46.6241 63 31.4589C63 16.2938 50.6878 4 35.5 4C20.3122 4 8 16.2938 8 31.4589C8 46.6241 20.3122 58.9178 35.5 58.9178Z" fill="#DDE9F5"/>
<path d="M46.0595 39.7952C45.4686 37.8566 44.9106 34.3988 45.1617 33.0501C45.4128 31.7014 45.0583 22.0033 35.7691 22.0033C26.4799 22.0033 25.9383 31.7014 26.1911 33.0501C26.4438 34.3988 26.4455 37.8566 25.853 39.7952C25.2605 41.7339 22.3523 54.7079 22.3523 54.7079C22.5164 55.5076 26.091 56.7629 26.8164 57.0562C28.3964 57.7 30.0355 58.1885 31.7104 58.5147C37.7369 59.688 45.0206 58.772 50.1838 55.3486C50.1838 55.347 46.6503 41.7355 46.0595 39.7952Z" fill="white"/>
<path d="M30.5126 31.4098C30.9939 31.4098 31.3841 30.6306 31.3841 29.6694C31.3841 28.7083 30.9939 27.9291 30.5126 27.9291C30.0313 27.9291 29.6411 28.7083 29.6411 29.6694C29.6411 30.6306 30.0313 31.4098 30.5126 31.4098Z" fill="#1D386D"/>
<path d="M40.6552 31.4098C41.1365 31.4098 41.5266 30.6306 41.5266 29.6694C41.5266 28.7083 41.1365 27.9291 40.6552 27.9291C40.1739 27.9291 39.7837 28.7083 39.7837 29.6694C39.7837 30.6306 40.1739 31.4098 40.6552 31.4098Z" fill="#1D386D"/>
<path d="M39.9627 32.8191C39.6623 32.8011 39.2652 32.7683 38.7711 32.7044C37.5419 32.5405 37.2169 31.1279 35.7874 31.1459C34.3563 31.1279 34.0314 32.5454 32.8021 32.7044C32.3097 32.7683 31.9109 32.8011 31.6106 32.8191C31.5625 32.822 31.5164 32.8395 31.4786 32.8692C31.4407 32.899 31.4129 32.9396 31.3988 32.9856C31.3847 33.0315 31.385 33.0807 31.3997 33.1266C31.4143 33.1724 31.4427 33.2126 31.4809 33.2419C32.0849 33.6975 32.9744 34.4234 33.1008 34.8462C33.5324 36.2769 32.5428 38.0926 33.4586 39.3888C33.777 39.8395 35.1113 41.6274 35.6627 43.276C35.6736 43.2997 35.691 43.3198 35.713 43.3339C35.7349 43.348 35.7605 43.3555 35.7866 43.3555C35.8127 43.3555 35.8383 43.348 35.8603 43.3339C35.8822 43.3198 35.8997 43.2997 35.9105 43.276C36.462 41.6274 37.7963 39.8346 38.1147 39.3888C39.0305 38.0926 38.0408 36.2752 38.4724 34.8462C38.5988 34.4234 39.4884 33.6991 40.0923 33.2419C40.1305 33.2126 40.1589 33.1724 40.1736 33.1266C40.1883 33.0807 40.1886 33.0315 40.1745 32.9856C40.1604 32.9396 40.1325 32.899 40.0947 32.8692C40.0568 32.8395 40.0107 32.822 39.9627 32.8191Z" fill="#CE9A09"/>
<path d="M39.9627 32.8191C39.6623 32.8011 39.2652 32.7683 38.7711 32.7044C37.5419 32.5405 37.2169 31.1279 35.7874 31.1459C34.3563 31.1279 34.0314 32.5454 32.8021 32.7044C32.3097 32.7683 31.9109 32.8011 31.6106 32.8191C31.5625 32.822 31.5164 32.8395 31.4786 32.8692C31.4407 32.899 31.4129 32.9396 31.3988 32.9856C31.3847 33.0315 31.385 33.0807 31.3997 33.1266C31.4143 33.1724 31.4427 33.2126 31.4809 33.2419C32.0849 33.6975 32.9744 34.4234 33.1008 34.8462C33.5324 36.2769 33.9214 37.855 34.3924 39.3888C34.5565 39.9149 35.1113 41.6274 35.6627 43.276C35.6736 43.2997 35.691 43.3198 35.713 43.3339C35.7349 43.348 35.7605 43.3555 35.7866 43.3555C35.8127 43.3555 35.8383 43.348 35.8603 43.3339C35.8822 43.3198 35.8997 43.2997 35.9105 43.276C36.462 41.6274 37.0183 39.9165 37.1808 39.3888C37.6732 37.7681 38.0408 36.2752 38.4724 34.8462C38.5988 34.4234 39.4884 33.6991 40.0923 33.2419C40.1305 33.2126 40.1589 33.1724 40.1736 33.1266C40.1883 33.0807 40.1886 33.0315 40.1745 32.9856C40.1604 32.9396 40.1325 32.899 40.0947 32.8692C40.0568 32.8395 40.0107 32.822 39.9627 32.8191Z" fill="#FFC91D"/>
<path d="M24.8125 19.4567C24.8125 19.4567 27.6797 12.9017 35.3408 12.8673C43.5091 12.8378 46.1219 18.7389 46.3828 19.4567L44.4889 22.9145C44.4889 22.9145 37.3677 18.3489 26.7163 22.9145L24.8125 19.4567Z" fill="#1D386D"/>
<path d="M27.583 24.445C27.583 24.445 27.2416 26.4115 36.2567 26.4115C44.2625 26.4115 43.7849 24.445 43.7849 24.445C43.7849 24.445 37.4384 19.6189 27.583 24.445Z" fill="#1D386D"/>
<path d="M26.897 23.2569L27.583 24.445C27.583 24.445 36.2814 20.2301 43.7849 24.445L44.3167 23.2258C44.3167 23.2258 37.6042 18.4275 26.897 23.2569Z" fill="#95E8B7"/>
<path d="M26.718 22.9145L26.8969 23.257C26.8969 23.257 36.0253 18.6324 44.3166 23.2258L44.4906 22.9145C44.4906 22.9145 37.2693 18.2342 26.718 22.9145Z" fill="white"/>
<path d="M35.5 58.9178C50.6878 58.9178 63 46.6241 63 31.4589C63 16.2938 50.6878 4 35.5 4C20.3122 4 8 16.2938 8 31.4589C8 46.6241 20.3122 58.9178 35.5 58.9178Z" stroke="white" stroke-width="4" stroke-miterlimit="10"/>
<path d="M37.0904 15.9284C37.0479 15.8865 36.9929 15.8596 36.9337 15.8516C36.8745 15.8436 36.8143 15.8551 36.7622 15.8842C36.721 15.9025 36.6857 15.932 36.6604 15.9694L35.5756 17.6229L35.3688 17.9359C35.3395 17.9844 35.3294 18.0421 35.3407 18.0976C35.3519 18.1532 35.3836 18.2025 35.4295 18.2358C35.4445 18.248 35.4604 18.259 35.4771 18.2686C35.5136 18.2921 35.5569 18.303 35.6002 18.2997C35.6409 18.3025 35.6814 18.2915 35.7151 18.2686C35.7527 18.2462 35.7865 18.218 35.8152 18.185L36.6604 16.8576V18.9421C36.6584 19.013 36.6843 19.0818 36.7327 19.1338C36.7566 19.1582 36.7852 19.1776 36.8168 19.1908C36.8484 19.204 36.8822 19.2108 36.9165 19.2108C36.9507 19.2108 36.9846 19.204 37.0161 19.1908C37.0477 19.1776 37.0763 19.1582 37.1003 19.1338C37.147 19.0811 37.1716 19.0124 37.1692 18.9421V16.1185C37.1699 16.0831 37.1632 16.048 37.1497 16.0153C37.1361 15.9826 37.116 15.953 37.0904 15.9284Z" fill="white"/>
<path d="M35.8301 17.9359L35.6233 17.6229L34.5385 15.9694C34.5139 15.9321 34.4792 15.9026 34.4384 15.8842C34.3986 15.8625 34.3541 15.8507 34.3087 15.8498C34.2723 15.8491 34.2361 15.8557 34.2023 15.8692C34.1685 15.8827 34.1377 15.9028 34.1118 15.9284C34.0858 15.9528 34.065 15.9822 34.0509 16.0149C34.0368 16.0477 34.0296 16.0829 34.0297 16.1185V18.9421C34.0271 19.0128 34.0524 19.0817 34.1003 19.1338C34.1232 19.1596 34.1516 19.18 34.1834 19.1933C34.2152 19.2066 34.2497 19.2126 34.2841 19.2109C34.3183 19.2121 34.3523 19.2059 34.3838 19.1926C34.4153 19.1793 34.4434 19.1592 34.4663 19.1338C34.4905 19.1083 34.5094 19.0782 34.5218 19.0453C34.5342 19.0123 34.5399 18.9773 34.5385 18.9421V16.8576L35.3837 18.185C35.413 18.218 35.4474 18.2462 35.4855 18.2686C35.5192 18.2916 35.5596 18.3026 35.6004 18.2997C35.6437 18.3027 35.6868 18.2918 35.7235 18.2686C35.7397 18.259 35.7551 18.248 35.7694 18.2358C35.8153 18.2025 35.847 18.1532 35.8583 18.0977C35.8695 18.0421 35.8595 17.9844 35.8301 17.9359Z" fill="white"/>
</g>
<defs>
<filter id="filter0_d" x="0" y="0" width="71" height="70.9178" filterUnits="userSpaceOnUse" color-interpolation-filters="sRGB">
<feFlood flood-opacity="0" result="BackgroundImageFix"/>
<feColorMatrix in="SourceAlpha" type="matrix" values="0 0 0 0 0 0 0 0 0 0 0 0 0 0 0 0 0 0 127 0"/>
<feOffset dy="4"/>
<feGaussianBlur stdDeviation="3"/>
<feColorMatrix type="matrix" values="0 0 0 0 0 0 0 0 0 0 0 0 0 0 0 0 0 0 0.2 0"/>
<feBlend mode="normal" in2="BackgroundImageFix" result="effect1_dropShadow"/>
<feBlend mode="normal" in="SourceGraphic" in2="effect1_dropShadow" result="shape"/>
</filter>
</defs>
</svg>
