<svg width="17" height="19" viewBox="0 0 17 19" fill="none" xmlns="http://www.w3.org/2000/svg">
<path d="M4.55594 1.22518C4.71997 1.38927 4.81213 1.61179 4.81213 1.84381C4.81213 2.07583 4.71997 2.29835 4.55594 2.46243L2.98706 4.03131H9.84356C11.228 4.03131 12.5814 4.44185 13.7326 5.21102C14.8837 5.98019 15.7809 7.07344 16.3107 8.35252C16.8405 9.63161 16.9792 11.0391 16.7091 12.3969C16.439 13.7548 15.7723 15.0021 14.7933 15.9811C13.8143 16.96 12.5671 17.6267 11.2092 17.8968C9.85133 18.1669 8.44386 18.0283 7.16478 17.4985C5.8857 16.9687 4.79245 16.0714 4.02328 14.9203C3.25411 13.7692 2.84356 12.4158 2.84356 11.0313C2.84356 10.7992 2.93575 10.5767 3.09984 10.4126C3.26394 10.2485 3.4865 10.1563 3.71856 10.1563C3.95063 10.1563 4.17319 10.2485 4.33728 10.4126C4.50138 10.5767 4.59356 10.7992 4.59356 11.0313C4.59356 12.0697 4.90147 13.0847 5.47835 13.9481C6.05523 14.8114 6.87516 15.4843 7.83448 15.8817C8.79379 16.279 9.84939 16.383 10.8678 16.1804C11.8862 15.9779 12.8216 15.4778 13.5559 14.7436C14.2901 14.0094 14.7901 13.0739 14.9927 12.0555C15.1953 11.0371 15.0913 9.98153 14.6939 9.02222C14.2966 8.06291 13.6237 7.24297 12.7603 6.66609C11.8969 6.08921 10.8819 5.78131 9.84356 5.78131H2.98706L4.55594 7.35018C4.71533 7.51521 4.80352 7.73624 4.80153 7.96566C4.79953 8.19508 4.70751 8.41454 4.54528 8.57677C4.38305 8.73901 4.16359 8.83103 3.93416 8.83302C3.70474 8.83502 3.48372 8.74682 3.31869 8.58743L0.256188 5.52493C0.0921509 5.36085 0 5.13833 0 4.90631C0 4.67429 0.0921509 4.45177 0.256188 4.28768L3.31869 1.22518C3.48277 1.06115 3.70529 0.968994 3.93731 0.968994C4.16933 0.968994 4.39185 1.06115 4.55594 1.22518Z" fill="#1D386D"/>
</svg>
