<svg width="28" height="23" viewBox="0 0 28 23" fill="none" xmlns="http://www.w3.org/2000/svg">
<path d="M9.36217 9.95477L0.638943 2.14818C0.0323976 1.6052 0.36342 0.62262 1.13313 0.520594L1.25942 0.512546L26.4147 0.357127C26.5767 0.35625 26.7361 0.397356 26.8775 0.476438C27.0188 0.555519 27.1373 0.669877 27.2213 0.808366C27.3053 0.946855 27.352 1.10475 27.3569 1.26666C27.3617 1.42856 27.3245 1.58896 27.2489 1.73221L27.1736 1.85175L12.2048 22.0692C11.7197 22.7235 10.7103 22.486 10.5384 21.7279L10.5175 21.6039L9.36217 9.95477L0.638943 2.14818L9.36217 9.95477ZM3.70044 2.37133L10.4067 8.37298L17.7929 4.62267C17.9949 4.52011 18.2272 4.49417 18.4469 4.54965C18.6665 4.60512 18.8586 4.73825 18.9877 4.92443L19.0533 5.03415C19.1559 5.23634 19.1817 5.46887 19.126 5.68866C19.0703 5.90845 18.9369 6.10061 18.7504 6.22955L18.6418 6.29451L11.2534 10.0459L12.1428 19.0011L24.5514 2.2425L3.69932 2.37189L3.70044 2.37133Z" fill="#1D386D"/>
</svg>
