<svg width="15" height="18" viewBox="0 0 15 18" fill="none" xmlns="http://www.w3.org/2000/svg">
<path d="M0 3.86247C0 3.60637 0.095343 3.36076 0.265054 3.17967C0.434766 2.99859 0.664943 2.89685 0.904951 2.89685H13.5743C13.8143 2.89685 14.0445 2.99859 14.2142 3.17967C14.3839 3.36076 14.4792 3.60637 14.4792 3.86247C14.4792 4.11857 14.3839 4.36418 14.2142 4.54526C14.0445 4.72635 13.8143 4.82809 13.5743 4.82809V14.4843C13.5743 15.2526 13.2882 15.9894 12.7791 16.5327C12.27 17.0759 11.5794 17.3811 10.8594 17.3811H3.61981C2.89978 17.3811 2.20925 17.0759 1.70011 16.5327C1.19098 15.9894 0.904951 15.2526 0.904951 14.4843V4.82809C0.664943 4.82809 0.434766 4.72635 0.265054 4.54526C0.095343 4.36418 0 4.11857 0 3.86247ZM2.71485 4.82809V14.4843C2.71485 14.7404 2.8102 14.986 2.97991 15.1671C3.14962 15.3482 3.3798 15.4499 3.61981 15.4499H10.8594C11.0994 15.4499 11.3296 15.3482 11.4993 15.1671C11.669 14.986 11.7644 14.7404 11.7644 14.4843V4.82809H2.71485Z" fill="#1D386D"/>
<path d="M6.33473 1.93124C6.09472 1.93124 5.86454 2.03297 5.69483 2.21406C5.52512 2.39515 5.42978 2.64076 5.42978 2.89686V3.86247C5.42978 4.11857 5.33443 4.36418 5.16472 4.54527C4.99501 4.72636 4.76483 4.82809 4.52482 4.82809C4.28482 4.82809 4.05464 4.72636 3.88493 4.54527C3.71522 4.36418 3.61987 4.11857 3.61987 3.86247V2.89686C3.61987 2.12856 3.9059 1.39174 4.41503 0.848469C4.92417 0.305204 5.6147 0 6.33473 0H8.14463C8.86465 0 9.55519 0.305204 10.0643 0.848469C10.5735 1.39174 10.8595 2.12856 10.8595 2.89686V3.86247C10.8595 4.11857 10.7641 4.36418 10.5944 4.54527C10.4247 4.72636 10.1945 4.82809 9.95453 4.82809C9.71452 4.82809 9.48435 4.72636 9.31463 4.54527C9.14492 4.36418 9.04958 4.11857 9.04958 3.86247V2.89686C9.04958 2.64076 8.95424 2.39515 8.78453 2.21406C8.61482 2.03297 8.38464 1.93124 8.14463 1.93124H6.33473ZM5.42978 6.75933C5.66978 6.75933 5.89996 6.86106 6.06967 7.04215C6.23938 7.22324 6.33473 7.46885 6.33473 7.72495V12.553C6.33473 12.8091 6.23938 13.0547 6.06967 13.2358C5.89996 13.4169 5.66978 13.5187 5.42978 13.5187C5.18977 13.5187 4.95959 13.4169 4.78988 13.2358C4.62017 13.0547 4.52482 12.8091 4.52482 12.553V7.72495C4.52482 7.46885 4.62017 7.22324 4.78988 7.04215C4.95959 6.86106 5.18977 6.75933 5.42978 6.75933ZM9.04958 6.75933C9.28959 6.75933 9.51977 6.86106 9.68948 7.04215C9.85919 7.22324 9.95453 7.46885 9.95453 7.72495V12.553C9.95453 12.8091 9.85919 13.0547 9.68948 13.2358C9.51977 13.4169 9.28959 13.5187 9.04958 13.5187C8.80957 13.5187 8.57939 13.4169 8.40968 13.2358C8.23997 13.0547 8.14463 12.8091 8.14463 12.553V7.72495C8.14463 7.46885 8.23997 7.22324 8.40968 7.04215C8.57939 6.86106 8.80957 6.75933 9.04958 6.75933Z" fill="#1D386D"/>
</svg>
