<svg width="70" height="70" viewBox="0 0 70 70" fill="none" xmlns="http://www.w3.org/2000/svg">
<g filter="url(#filter0_d)">
<path d="M35 58C49.9117 58 62 45.9117 62 31C62 16.0883 49.9117 4 35 4C20.0883 4 8 16.0883 8 31C8 45.9117 20.0883 58 35 58Z" fill="#DDE9F5"/>
<path d="M35 58C49.9117 58 62 45.9117 62 31C62 16.0883 49.9117 4 35 4C20.0883 4 8 16.0883 8 31C8 45.9117 20.0883 58 35 58Z" stroke="white" stroke-width="3.92727" stroke-miterlimit="10"/>
</g>
<g clip-path="url(#clip0)">
<rect width="30.4177" height="30.4177" transform="translate(20.3037 16.9873)" fill="#DDE9F5"/>
<path d="M39.749 39.1007C38.7032 39.1126 37.7037 39.5335 36.9645 40.2734C36.2252 41.0132 35.8051 42.013 35.7939 43.0588C35.7882 43.5717 35.885 44.0807 36.0787 44.5557C36.2723 45.0307 36.5589 45.4622 36.9217 45.825C37.2844 46.1877 37.7159 46.4743 38.191 46.668C38.666 46.8616 39.1749 46.9584 39.6878 46.9527C38.5081 43.6945 38.7709 41.2066 39.749 39.1007Z" fill="#1D386D" stroke="#1D386D" stroke-width="0.901651" stroke-linecap="round" stroke-linejoin="round"/>
<path d="M42.4172 36.4324C42.4292 35.3866 42.8501 34.3871 43.5899 33.6479C44.3297 32.9086 45.3296 32.4885 46.3753 32.4774C46.8883 32.4716 47.3972 32.5684 47.8722 32.7621C48.3472 32.9557 48.7788 33.2424 49.1415 33.6051C49.5042 33.9678 49.7908 34.3994 49.9845 34.8744C50.1782 35.3494 50.275 35.8583 50.2692 36.3713C47.0111 35.1915 44.5231 35.4543 42.4172 36.4324Z" fill="#1D386D" stroke="#1D386D" stroke-width="0.901651" stroke-linecap="round" stroke-linejoin="round"/>
<path d="M24.7111 28.7638C23.6654 28.7749 22.6655 29.1951 21.9257 29.9343C21.1859 30.6736 20.765 31.6731 20.753 32.7189C20.7377 34.8859 22.4799 38.5078 24.6469 38.4925L24.7111 28.7638Z" fill="#1D386D" stroke="#1D386D" stroke-width="0.901651" stroke-linecap="round" stroke-linejoin="round"/>
<path d="M32.0771 21.3947C32.0891 20.3486 32.5099 19.3488 33.2496 18.6091C33.9893 17.8694 34.9892 17.4485 36.0352 17.4366C38.2023 17.4213 41.8241 19.1635 41.8089 21.3305L32.0771 21.3947Z" fill="#1D386D" stroke="#1D386D" stroke-width="0.901651" stroke-linecap="round" stroke-linejoin="round"/>
<path d="M23.3593 20.043C23.6062 19.7961 23.8993 19.6002 24.222 19.4666C24.5446 19.3329 24.8903 19.2641 25.2395 19.2641C25.5887 19.2641 25.9345 19.3329 26.2571 19.4666C26.5798 19.6002 26.8729 19.7961 27.1198 20.043L30.4092 23.3324L26.6487 27.0929L23.3593 23.8035C22.8606 23.3048 22.5804 22.6285 22.5804 21.9232C22.5804 21.218 22.8606 20.5417 23.3593 20.043Z" fill="#1D386D" stroke="#1D386D" stroke-width="0.901651" stroke-linecap="round" stroke-linejoin="round"/>
<path d="M43.0992 39.7833C46.9928 35.8897 46.5718 29.1561 42.159 24.7433C37.7462 20.3305 31.0126 19.9096 27.119 23.8031C23.2255 27.6967 23.6464 34.4304 28.0592 38.8432C32.472 43.256 39.2056 43.6769 43.0992 39.7833Z" fill="#DDE9F5" stroke="#1D386D" stroke-width="0.901651" stroke-linecap="round" stroke-linejoin="round" stroke-dasharray="33.83 3.38"/>
<path d="M32.4804 38.8042L33.5105 38.6545L34.4029 35.3168L31.9608 32.8747L28.6263 33.7703L28.4368 35.0387L29.9375 36.9612" stroke="#1D386D" stroke-width="0.901651" stroke-linecap="round" stroke-linejoin="round"/>
<path d="M42.2034 29.32L41.9711 30.1942L38.6335 31.0867L36.1914 28.6446L37.0869 25.31L38.1842 25.0166L40.2779 26.6212" stroke="#1D386D" stroke-width="0.901651" stroke-linecap="round" stroke-linejoin="round"/>
<path d="M35.8366 24.0599L37.1784 25.4017L36.0933 28.5498L32.9482 29.6318L30.3167 27.0002L31.0319 24.335L32.7587 23.8032" stroke="#1D386D" stroke-width="0.901651" stroke-linecap="round" stroke-linejoin="round"/>
<path d="M27.3764 32.5202L28.7181 33.8619L31.8663 32.7769L32.9483 29.6318L30.3167 27.0002L27.6515 27.7154L27.1196 29.4423" stroke="#1D386D" stroke-width="0.901651" stroke-linecap="round" stroke-linejoin="round"/>
<path d="M34.3817 39.5225L33.4189 38.5597L34.5009 35.4146L37.646 34.3296L40.2776 36.9612L39.7366 38.9876L37.4596 39.7823" stroke="#1D386D" stroke-width="0.901651" stroke-linecap="round" stroke-linejoin="round"/>
<path d="M42.8389 31.0653L41.8761 30.1025L38.731 31.1845L37.646 34.3296L40.2776 36.9612L42.304 36.4202L43.0987 34.1431" stroke="#1D386D" stroke-width="0.901651" stroke-linecap="round" stroke-linejoin="round"/>
<path d="M38.6336 31.0867L36.1915 28.6446L32.9487 29.6318L31.9614 32.8747L34.4035 35.3168L37.6464 34.3296L38.6336 31.0867Z" stroke="#1D386D" stroke-width="0.901651" stroke-linecap="round" stroke-linejoin="round"/>
</g>
<defs>
<filter id="filter0_d" x="0.145469" y="0.072741" width="69.7091" height="69.7091" filterUnits="userSpaceOnUse" color-interpolation-filters="sRGB">
<feFlood flood-opacity="0" result="BackgroundImageFix"/>
<feColorMatrix in="SourceAlpha" type="matrix" values="0 0 0 0 0 0 0 0 0 0 0 0 0 0 0 0 0 0 127 0"/>
<feOffset dy="3.92727"/>
<feGaussianBlur stdDeviation="2.94545"/>
<feColorMatrix type="matrix" values="0 0 0 0 0 0 0 0 0 0 0 0 0 0 0 0 0 0 0.05 0"/>
<feBlend mode="normal" in2="BackgroundImageFix" result="effect1_dropShadow"/>
<feBlend mode="normal" in="SourceGraphic" in2="effect1_dropShadow" result="shape"/>
</filter>
<clipPath id="clip0">
<rect width="30.4177" height="30.4177" fill="white" transform="translate(20.3037 16.9873)"/>
</clipPath>
</defs>
</svg>
